<svg xmlns="http://www.w3.org/2000/svg" xmlns:xlink="http://www.w3.org/1999/xlink" width="42" height="42" viewBox="0 0 42 42"><defs><clipPath id="b"><rect width="42" height="42"/></clipPath></defs><g id="a" clip-path="url(#b)"><g transform="translate(0.643 0.531)"><rect width="17.128" height="1.142" transform="translate(11.911 3.426)" stroke="#000" stroke-width="0.9"/><path d="M97.953,13.875a2.956,2.956,0,0,0,2.953-2.953V8.953a2.953,2.953,0,1,0-5.906,0v1.969A2.956,2.956,0,0,0,97.953,13.875ZM96.313,8.953a1.641,1.641,0,1,1,3.281,0v1.969a1.641,1.641,0,1,1-3.281,0Z" transform="translate(-65.114 -6)" stroke="#000" stroke-width="0.9"/><path d="M17.953,13.875a2.956,2.956,0,0,0,2.953-2.953V8.953a2.953,2.953,0,1,0-5.906,0v1.969A2.956,2.956,0,0,0,17.953,13.875ZM16.313,8.953a1.641,1.641,0,1,1,3.281,0v1.969a1.641,1.641,0,1,1-3.281,0Z" transform="translate(-10.078 -6)" stroke="#000" stroke-width="0.9"/><path d="M38.17,16h-.954v1.61h.954a1.473,1.473,0,0,1,1.272,1.61v4.831H1.272V19.221a1.473,1.473,0,0,1,1.272-1.61H3.5V16H2.545C1.14,16,0,17.443,0,19.221v31.1c0,1.778,1.14,3.219,2.545,3.221H20.521q-.251-.788-.425-1.61H2.545a1.473,1.473,0,0,1-1.272-1.61V25.663h38.17V37.239a14.9,14.9,0,0,1,1.272,2.427V19.221c0-1.778-1.14-3.219-2.545-3.221Z" transform="translate(0 -12.719)" stroke="#000" stroke-width="0.9"/><g transform="translate(3.922 18.368)"><path d="M47.563,47.656A.656.656,0,0,0,46.906,47h-5.25a.656.656,0,0,0-.656.656v5.25a.656.656,0,0,0,.656.656h5.25a.656.656,0,0,0,.656-.656ZM46.25,52.25H42.313V48.313H46.25Z" transform="translate(-32.836 -47)" stroke="#000" stroke-width="0.9"/><path d="M46.906,73h-5.25a.656.656,0,0,0-.656.656v5.25a.656.656,0,0,0,.656.656h5.25a.656.656,0,0,0,.656-.656v-5.25A.656.656,0,0,0,46.906,73Zm-.656,5.25H42.313V74.313H46.25Z" transform="translate(-32.836 -64.469)" stroke="#000" stroke-width="0.9"/><path d="M15.656,73a.656.656,0,0,0-.656.656v5.25a.656.656,0,0,0,.656.656h5.25a.656.656,0,0,0,.656-.656v-5.25A.656.656,0,0,0,20.906,73Zm4.594,5.25H16.313V74.313H20.25Z" transform="translate(-15 -64.469)" stroke="#000" stroke-width="0.9"/><path d="M73.563,50.433V47.656A.656.656,0,0,0,72.906,47h-5.25a.656.656,0,0,0-.656.656v5.25a.656.656,0,0,0,.656.656h.84a11.58,11.58,0,0,1,1.465-1.312H68.313V48.313H72.25v2.6a11.393,11.393,0,0,1,1.312-.482Z" transform="translate(-50.672 -47)" stroke="#000" stroke-width="0.9"/><path d="M99.563,51.229V47.656A.656.656,0,0,0,98.906,47h-5.25a.656.656,0,0,0-.656.656V50.03a11.539,11.539,0,0,1,1.312-.077V48.313H98.25v2.336A11.414,11.414,0,0,1,99.563,51.229Z" transform="translate(-68.692 -47)" stroke="#000" stroke-width="0.9"/><g transform="translate(14.792 2.114)"><path d="M76.172,60A10.172,10.172,0,1,0,86.344,70.172,10.172,10.172,0,0,0,76.172,60Zm0,19.031a8.859,8.859,0,1,1,8.859-8.859A8.859,8.859,0,0,1,76.172,79.031Z" transform="translate(-66 -60)" stroke="#000" stroke-width="0.9"/><path d="M88.692,78.193l-6.735,6.753L79.121,82.1a.656.656,0,0,0-.929.927l3.3,3.309a.664.664,0,0,0,.929,0l7.2-7.219a.656.656,0,1,0-.929-.927Z" transform="translate(-74 -72)" stroke="#000" stroke-width="0.9"/></g></g></g></g></svg>