<svg xmlns="http://www.w3.org/2000/svg" xmlns:xlink="http://www.w3.org/1999/xlink" width="571" height="411" viewBox="0 0 571 411"><defs><clipPath id="b"><rect width="571" height="411"/></clipPath></defs><g id="a" clip-path="url(#b)"><g transform="translate(-29 0)"><path d="M5421.1,411s6.021-50.063-32.012-86.716S5313.023,288.525,5262,257.236c-45.323-36.057-28.841-101.019-33.6-148.4S5165.8,1.856,5091.166.068,4960.587,32.1,4894.98,36.423s-73.53-19.37-73.53-19.37V411Z" transform="translate(-4821.45 17)" fill="#c8daf9" opacity="0.83"/><path d="M5306.169,324.2s4.867-39.49-25.877-68.4-61.486-28.207-102.732-52.888c-36.637-28.442-23.313-79.685-27.158-117.059S5099.8,1.464,5039.471.054,4933.92,25.323,4880.888,28.731s-59.437-15.279-59.437-15.279V324.2Z" transform="translate(-4821.45 86.8)" fill="#d7e4fb"/><path d="M5188.916,261.141s3.689-31.809-19.618-55.1-46.612-22.721-77.881-42.6c-27.774-22.91-17.674-64.186-20.588-94.29s-38.358-67.972-84.1-69.108-80.017,20.354-120.222,23.1-45.06-12.307-45.06-12.307V261.141Z" transform="translate(-4805.129 149.859)" fill="#ebf3ff" opacity="0.64"/></g></g></svg>