<svg xmlns="http://www.w3.org/2000/svg" width="29" height="28" viewBox="0 0 29 28"><g transform="translate(-188 -552)"><g transform="translate(188 552)" fill="none" stroke="#000" stroke-width="1.8"><rect width="29" height="28" rx="3" stroke="none"/><rect x="0.9" y="0.9" width="27.2" height="26.2" rx="2.1" fill="none"/></g><path d="M65.935,26.5a2.6,2.6,0,0,1,2.5,1.815,2.6,2.6,0,0,1,.954,2.936,2.6,2.6,0,0,1-.954,2.936,2.609,2.609,0,0,1-.844,1.228v4.872a.546.546,0,0,1-.871.437L64.391,39l-2.326,1.724a.547.547,0,0,1-.871-.438V35.411a2.587,2.587,0,0,1-.844-1.228,2.59,2.59,0,0,1-.953-2.935,2.593,2.593,0,0,1,.953-2.936,2.606,2.606,0,0,1,.95-1.319,2.533,2.533,0,0,1,1.548-.5,2.71,2.71,0,0,1,3.087,0ZM66.5,39.2V35.927a2.576,2.576,0,0,1-.562.069,2.6,2.6,0,0,1-3.087,0,2.346,2.346,0,0,1-.562-.061V39.2l1.78-1.319a.547.547,0,0,1,.65,0L66.5,39.2Zm-.672-11.6a.534.534,0,0,1-.447-.145,1.491,1.491,0,0,0-1.973,0,.542.542,0,0,1-.447.145,1.492,1.492,0,0,0-1.6,1.159.545.545,0,0,1-.276.381,1.488,1.488,0,0,0-.609,1.875.544.544,0,0,1,0,.471,1.471,1.471,0,0,0-.051,1.052,1.488,1.488,0,0,0,.659.823.545.545,0,0,1,.276.381,1.492,1.492,0,0,0,1.6,1.159.506.506,0,0,1,.071,0,.543.543,0,0,1,.375.15,1.491,1.491,0,0,0,1.973,0,.534.534,0,0,1,.447-.145,1.492,1.492,0,0,0,1.6-1.159.545.545,0,0,1,.276-.381,1.492,1.492,0,0,0,.61-1.876.542.542,0,0,1,0-.47,1.492,1.492,0,0,0-.61-1.876.545.545,0,0,1-.276-.381,1.492,1.492,0,0,0-1.6-1.159Zm-1.433.453a3.2,3.2,0,1,1-3.2,3.2A3.2,3.2,0,0,1,64.391,28.049Zm0,1.091A2.105,2.105,0,1,0,66.5,31.245,2.107,2.107,0,0,0,64.391,29.14Z" transform="translate(132.129 530.711)" stroke="#000" stroke-width="0.3"/><path d="M26.407,64.227a.474.474,0,0,0,.271-.085,6.631,6.631,0,0,0,2.248-2.149,3.831,3.831,0,0,0,.644,1.986.792.792,0,0,0,.568.247,1.842,1.842,0,0,0,1.464-.71,1.593,1.593,0,0,0,1.119.71h2.3a.478.478,0,1,0,0-.957H32.735a2.254,2.254,0,0,1-.738-.9.485.485,0,0,0-.454-.253.477.477,0,0,0-.417.311,1.127,1.127,0,0,1-.909.834,9.724,9.724,0,0,1-.46-3.537.479.479,0,0,0-.942-.121,5.138,5.138,0,0,1-2.681,3.746.478.478,0,0,0,.272.872Z" transform="translate(177.416 511.174)"/><path d="M53.281,16.082h8.5c.345,0,.624-.4.624-.885s-.279-.885-.624-.885h-8.5c-.345,0-.624.4-.624.885S52.936,16.082,53.281,16.082Z" transform="translate(150.687 543.95)"/><path d="M53.281,16.082h8.5c.345,0,.624-.4.624-.885s-.279-.885-.624-.885h-8.5c-.345,0-.624.4-.624.885S52.936,16.082,53.281,16.082Z" transform="translate(150.687 548.051)"/><path d="M53.281,16.082h8.5c.345,0,.624-.4.624-.885s-.279-.885-.624-.885h-8.5c-.345,0-.624.4-.624.885S52.936,16.082,53.281,16.082Z" transform="translate(150.687 552.812)"/></g></svg>