<svg xmlns="http://www.w3.org/2000/svg" width="29.412" height="29.826" viewBox="0 0 29.412 29.826">
  <g id="certificate-icon" transform="translate(-8.8 63.2)">
    <path id="Path_14338" data-name="Path 14338" d="M36.2,3H10.811A1.816,1.816,0,0,0,9,4.811V22.538a1.816,1.816,0,0,0,1.811,1.811h13.03a.37.37,0,0,0,.024.036,2.029,2.029,0,0,1-.054.652,1.954,1.954,0,0,0,.151,1.563,1.958,1.958,0,0,0,1.449.628,4.083,4.083,0,0,1,.525.1l-.229,4.488a.6.6,0,0,0,.308.525.611.611,0,0,0,.61-.006l2.939-1.04,2.481,1.04a.579.579,0,0,0,.308.084.572.572,0,0,0,.3-.078.611.611,0,0,0,.308-.525l.229-4.488a4.083,4.083,0,0,1,.525-.1,1.981,1.981,0,0,0,1.449-.628,1.954,1.954,0,0,0,.151-1.563,1.869,1.869,0,0,1-.054-.652c0-.012.018-.024.024-.036H36.2a1.816,1.816,0,0,0,1.811-1.811V4.811A1.816,1.816,0,0,0,36.2,3ZM29.864,30.073a.6.6,0,0,0-.622,0l-2.336.678.229-1.766a1.138,1.138,0,0,0,.64.187,2.622,2.622,0,0,0,1.159-.392,1.982,1.982,0,0,1,.622-.26,1.982,1.982,0,0,1,.622.26,1.97,1.97,0,0,0,1.521.338,1.072,1.072,0,0,0,.278-.133l-.229,1.766-1.877-.678Zm4.249-4.818a1.994,1.994,0,0,1,.06.634,1.893,1.893,0,0,1-.64.145,2.626,2.626,0,0,0-1.183.362,2.5,2.5,0,0,0-.7,1,1.982,1.982,0,0,1-.332.561,1.8,1.8,0,0,1-.585-.247,2.611,2.611,0,0,0-1.189-.4,2.611,2.611,0,0,0-1.189.4,2.787,2.787,0,0,1-.573.253,2.11,2.11,0,0,1-.344-.567,2.518,2.518,0,0,0-.7-1,2.53,2.53,0,0,0-1.177-.362,2.029,2.029,0,0,1-.634-.139,2,2,0,0,1,.054-.646A2.547,2.547,0,0,0,25,24.005a2.419,2.419,0,0,0-.73-.966c-.151-.145-.429-.4-.441-.507.012-.1.29-.368.441-.513a2.419,2.419,0,0,0,.73-.966,2.547,2.547,0,0,0-.018-1.243,1.994,1.994,0,0,1-.06-.634,1.893,1.893,0,0,1,.64-.145,2.626,2.626,0,0,0,1.183-.362,2.5,2.5,0,0,0,.7-1,1.982,1.982,0,0,1,.332-.561h.006a2.112,2.112,0,0,1,.573.253,2.611,2.611,0,0,0,1.189.4,2.611,2.611,0,0,0,1.189-.4,1.913,1.913,0,0,1,.573-.253,2.11,2.11,0,0,1,.344.567,2.518,2.518,0,0,0,.7,1,2.53,2.53,0,0,0,1.177.362,2.028,2.028,0,0,1,.634.139,2,2,0,0,1-.054.646,2.547,2.547,0,0,0-.018,1.243,2.419,2.419,0,0,0,.73.966c.151.145.429.4.441.513-.012.1-.29.368-.441.513a2.419,2.419,0,0,0-.73.966,2.547,2.547,0,0,0,.018,1.243Zm.266-7.285a4.846,4.846,0,0,0-.682-.133,1.964,1.964,0,0,1-.628-.145,1.9,1.9,0,0,1-.326-.549,2.014,2.014,0,0,0-1.056-1.2,1.975,1.975,0,0,0-1.521.338,1.982,1.982,0,0,1-.622.26,1.982,1.982,0,0,1-.622-.26,1.97,1.97,0,0,0-1.521-.338,2,2,0,0,0-1.056,1.2,2.08,2.08,0,0,1-.326.549,1.964,1.964,0,0,1-.628.145,1.981,1.981,0,0,0-1.449.628,1.954,1.954,0,0,0-.151,1.563,1.869,1.869,0,0,1,.054.652c0,.012-.018.024-.024.036h-11.2V6.621H34.385V17.97Zm2.414,4.569a.588.588,0,0,1-.465.573,1.3,1.3,0,0,0,.145-.573,2.029,2.029,0,0,0-.815-1.388.689.689,0,0,1-.066-.066V6.018a.605.605,0,0,0-.6-.6H12.018a.605.605,0,0,0-.6.6V21.331a.605.605,0,0,0,.6.6H22.79a1.239,1.239,0,0,0,0,1.207H10.811a.605.605,0,0,1-.6-.6V4.811a.605.605,0,0,1,.6-.6H36.2a.605.605,0,0,1,.6.6V22.538ZM21.071,9.639a.605.605,0,0,1,.6-.6h3.657a.6.6,0,1,1,0,1.207H21.675A.605.605,0,0,1,21.071,9.639ZM15.036,13.26a.605.605,0,0,1,.6-.6H31.367a.6.6,0,0,1,0,1.207H15.639A.605.605,0,0,1,15.036,13.26Zm14.521,5.657a3.621,3.621,0,1,0,3.621,3.621A3.624,3.624,0,0,0,29.556,18.917Zm0,6.036a2.414,2.414,0,1,1,2.414-2.414A2.414,2.414,0,0,1,29.556,24.953Z" transform="translate(0 -66)" stroke="#000" stroke-width="0.4"/>
    <rect id="Rectangle_1207" data-name="Rectangle 1207" width="7" height="1" rx="0.5" transform="translate(20 -51)" fill="#fff"/>
    <path id="Path_14339" data-name="Path 14339" d="M53.2,16.082h7.375c.3,0,.542-.4.542-.885s-.242-.885-.542-.885H53.2c-.3,0-.542.4-.542.885S52.9,16.082,53.2,16.082Z" transform="translate(-33.38 -65.313)"/>
  </g>
</svg>
