<svg xmlns="http://www.w3.org/2000/svg" width="230.078" height="154.61" viewBox="0 0 230.078 154.61"><g transform="translate(-2010.627 760.927)"><g transform="translate(1995.627 -760.927)"><path d="M382.3,90.187s4.478-2.7,5.076-5.237l2.24,2.619s-3.135,4.491-6.271,5.265Z" transform="translate(-153.342 -48.241)" fill="#6069a3"/><path d="M397.83,59.453s2.559-1.543,2.9-2.993l1.28,1.5s-1.792,2.566-3.584,3.008Z" transform="translate(-156.932 -37.79)" fill="#ed82a8"/><path d="M374.671,175.958s-1.136-2.765-2.517-3.322l1.675-1.037s2.263,2.161,2.428,4Z" transform="translate(-150.997 -74.402)" fill="#ed82a8"/><path d="M374.289,61.176s-.608,2.465.059,3.54l-1.668-.128s-.467-2.618.342-3.961Z" transform="translate(-151.087 -38.753)" fill="#6069a3"/><path d="M344.252,190.078s-1.63,4.076-.743,6.078l-2.825-.619s-.177-4.594,1.529-6.7Z" transform="translate(-143.721 -79.825)" fill="#6069a3"/><path d="M363.119,149.148s-.854,3.459.082,4.968l-2.34-.181s-.656-3.672.48-5.556Z" transform="translate(-148.343 -67.439)" fill="#6069a3"/><path d="M250.417,32.946s-.854,3.459.082,4.968l-2.34-.181s-.656-3.672.479-5.556Z" transform="translate(-122.29 -32.176)" fill="#6069a3"/><path d="M331.223,44.415s-2.827-4.4-5.38-4.924l2.553-2.313s4.578,3.005,5.443,6.117Z" transform="translate(-140.291 -33.332)" fill="#6069a3"/><path d="M351.4,112.592s3.766,3.628,6.372,3.548l-1.951,2.841s-5.148-1.868-6.707-4.7Z" transform="translate(-145.671 -56.602)" fill="#ed82a8"/><path d="M2.286,0S6.051,3.628,8.658,3.548L6.707,6.389S1.558,4.522,0,1.693Z" transform="translate(63.327 135.491) rotate(103)" fill="#ed82a8"/><path d="M288.268,72.836s3.767,3.628,6.372,3.549l-1.951,2.84s-5.149-1.868-6.707-4.7Z" transform="translate(-108.012 -37.564)" fill="#ed82a8"/><path d="M383.333,143.2s.607-5.193-1.033-7.22l3.442-.167s1.631,5.228.324,8.181Z" transform="translate(-153.342 -63.739)" fill="#ed82a8"/><path d="M127.037,101.7s-4.968,1.631-6.118,3.971l-1.6-3.053s4.059-3.677,7.289-3.731Z" transform="translate(-53.717 -64.451)" fill="#6069a3"/><path d="M245.466,179.823s-4.969,1.631-6.118,3.971l-1.6-3.053s4.059-3.676,7.288-3.73Z" transform="translate(-96.094 -90.116)" fill="#ed82a8"/><path d="M283.053,42.641s-4.969,1.631-6.118,3.971l-1.6-3.053s4.059-3.677,7.288-3.731Z" transform="translate(-128.616 -33.945)" fill="#ed82a8"/><path d="M83.3,175.593s4.964,1.645,7.28.447l-.532,3.4s-5.45.541-8.077-1.335Z" transform="translate(-45.083 -87.585)" fill="#6069a3"/><path d="M220.8,198.444s4.964,1.645,7.28.447l-.531,3.4s-5.45.541-8.078-1.335Z" transform="translate(-107.246 -47.758)" fill="#6069a3"/><path d="M49.831,74.439s4.964,1.645,7.28.447l-.532,3.4s-5.45.541-8.077-1.335Z" transform="translate(-33.502 -56.968)" fill="#6069a3"/><path d="M100.425,202.573s-.365,2.966.565,4.129l-1.967.083s-.913-2.993-.156-4.675Z" transform="translate(-48.919 -95.666)" fill="#ed82a8"/><path d="M84.664,89.377s-.365,2.965.565,4.129l-1.967.083s-.913-2.993-.156-4.676Z" transform="translate(-45.276 -61.367)" fill="#ed82a8"/><path d="M59.982,143.232s-.365,2.965.565,4.129l-1.967.084s-.913-2.993-.156-4.676Z" transform="translate(-39.571 -77.685)" fill="#ed82a8"/><path d="M105.8,56.124s-3.221-4.12-5.812-4.406l2.329-2.539s4.837,2.57,5.984,5.589Z" transform="translate(-49.247 -48.106)" fill="#6069a3"/><path d="M85.778,133.607s-5.179.724-6.725,2.824l-1.03-3.288s4.646-2.9,7.834-2.38Z" transform="translate(-44.17 -74.074)" fill="#ed82a8"/><path d="M116.675,158.078s1.783-4.916.651-7.265l3.388.627s.387,5.463-1.562,8.037Z" transform="translate(-53.105 -80.332)" fill="#ed82a8"/><path d="M100.425,202.573s-.365,2.966.565,4.129l-1.967.083s-.913-2.993-.156-4.675Z" transform="translate(89.079 -60.907)" fill="#ed82a8"/></g><g transform="translate(2069 -732.127)"><path d="M109.368,56.5a4.333,4.333,0,0,0-3.9,4.728c.13,1.3.188,2.617.188,3.933A40.448,40.448,0,1,1,82.14,28.392a4.335,4.335,0,1,0,3.644-7.866A48.661,48.661,0,0,0,65.164,16a49.164,49.164,0,1,0,49.164,49.164,47.213,47.213,0,0,0-.231-4.757A4.343,4.343,0,0,0,109.368,56.5Z" transform="translate(-16 -16)" fill="#3ca940"/><path d="M54.732,67.523,40.4,53.193a4.335,4.335,0,0,0-6.131,6.131L51.623,76.676a4.329,4.329,0,0,0,6.088.043l47.718-46.272A4.331,4.331,0,1,0,99.4,24.23Z" transform="translate(-8.417 -12.879)" fill="#3ca940"/></g></g></svg>