<svg xmlns="http://www.w3.org/2000/svg" xmlns:xlink="http://www.w3.org/1999/xlink" width="42" height="42" viewBox="0 0 42 42"><defs><clipPath id="b"><rect width="42" height="42"/></clipPath></defs><g id="a" clip-path="url(#b)"><g transform="translate(-18 -18)"><path d="M60,27.188A9.187,9.187,0,0,0,50.813,18H27.188A9.187,9.187,0,0,0,18,27.188V50.813A9.187,9.187,0,0,0,27.188,60H33.75a2.625,2.625,0,0,0,0-5.25H27.188a3.937,3.937,0,0,1-3.937-3.937V27.188a3.937,3.937,0,0,1,3.938-3.937H50.813a3.937,3.937,0,0,1,3.937,3.938V33.75a2.625,2.625,0,0,0,5.25,0Z" fill="#1b428a"/><path d="M59.844,50a2.625,2.625,0,0,0-2.625,2.625v4.594H52.625a2.625,2.625,0,0,0,0,5.25h4.594v4.594a2.625,2.625,0,0,0,5.25,0V62.469h4.594a2.625,2.625,0,0,0,0-5.25H62.469V52.625A2.625,2.625,0,0,0,59.844,50Z" transform="translate(-11 -11)" fill="#1b428a"/></g></g></svg>