<svg xmlns="http://www.w3.org/2000/svg" width="41" height="41" viewBox="0 0 41 41"><g transform="translate(0 0.167)"><circle cx="20.5" cy="20.5" r="20.5" transform="translate(0 -0.167)" fill="#fff"/><g transform="translate(12 7)"><path d="M366.143,37.25H352.035a1.14,1.14,0,0,1-1.185-1.086V11.086A1.14,1.14,0,0,1,352.035,10h14.108a1.14,1.14,0,0,1,1.185,1.086V36.164A1.14,1.14,0,0,1,366.143,37.25Zm-14.108-26.5a.355.355,0,0,0-.369.338V36.164a.355.355,0,0,0,.369.338h14.108a.355.355,0,0,0,.369-.338V11.086a.355.355,0,0,0-.369-.338Z" transform="translate(-350.85 -10)" fill="#1b428a" stroke="#1b428a" stroke-width="0.5"/><g transform="translate(0 3.276)"><path d="M366.92,179.456H351.258a.408.408,0,1,1,0-.816H366.92a.408.408,0,0,1,0,.816Z" transform="translate(-350.85 -178.64)" fill="#1b428a" stroke="#1b428a" stroke-width="0.5"/><g transform="translate(0 18.943)"><path d="M366.92,1281.816H351.258a.408.408,0,0,1,0-.816H366.92a.408.408,0,0,1,0,.816Z" transform="translate(-350.85 -1281)" fill="#1b428a" stroke="#1b428a" stroke-width="0.5"/></g></g><g transform="translate(6.073 24.336)"><path d="M667.4,1390.776h-3.517a.408.408,0,0,1,0-.816H667.4a.408.408,0,0,1,0,.816Z" transform="translate(-663.48 -1389.96)" fill="#1b428a" stroke="#1b428a" stroke-width="0.5"/></g><g transform="translate(2.957 11.464)"><path d="M513.246,665.588H503.5a.408.408,0,0,1-.408-.408v-3.292a.408.408,0,0,1,.408-.408h9.748a.408.408,0,0,1,.408.408v3.292A.408.408,0,0,1,513.246,665.588Zm-9.34-.816h8.932V662.3h-8.932Z" transform="translate(-503.09 -661.48)" fill="#1b428a"/><g transform="translate(1.757 1.655)"><circle cx="0.399" cy="0.399" r="0.399" fill="#1b428a"/><g transform="translate(1.563)"><circle cx="0.399" cy="0.399" r="0.399" fill="#1b428a"/></g><g transform="translate(3.126)"><circle cx="0.399" cy="0.399" r="0.399" fill="#1b428a"/></g><g transform="translate(4.689)"><circle cx="0.399" cy="0.399" r="0.399" fill="#1b428a"/></g><g transform="translate(6.251)"><circle cx="0.399" cy="0.399" r="0.399" fill="#1b428a"/></g></g></g></g></g></svg>