<svg xmlns="http://www.w3.org/2000/svg" width="41" height="41" viewBox="0 0 41 41"><g transform="translate(0 0.333)"><circle cx="20.5" cy="20.5" r="20.5" transform="translate(0 -0.333)" fill="#fff"/><g transform="translate(10 8)"><path d="M38.067,41.317a5.683,5.683,0,1,0-5.684-5.683A5.683,5.683,0,0,0,38.067,41.317Zm-2.894-1.855.11-.771a1.784,1.784,0,0,1,1.642-1.7h2.283a1.78,1.78,0,0,1,1.641,1.7l.112.771a4.788,4.788,0,0,1-5.788,0Zm2.894-3.353a1.651,1.651,0,1,1,1.651-1.651A1.651,1.651,0,0,1,38.067,36.109Zm0-5.275a4.8,4.8,0,0,1,3.678,7.881l-.022-.151a2.773,2.773,0,0,0-1.829-2.355,2.533,2.533,0,1,0-3.652,0,2.777,2.777,0,0,0-1.831,2.355l-.022.15a4.8,4.8,0,0,1,3.678-7.881Z" transform="translate(-27.668 -29.951)" fill="#1b428a" stroke="#1b428a" stroke-width="0.2"/><path d="M32.048,72.035H12.665a.408.408,0,0,0-.365.44v3.171a.492.492,0,0,0,.107.313.336.336,0,0,0,.259.129H32.048a.336.336,0,0,0,.259-.129.492.492,0,0,0,.107-.313V72.475A.408.408,0,0,0,32.048,72.035Zm-.365,3.17H13.03V72.917H31.684Z" transform="translate(-12.3 -57.834)" fill="#1b428a" stroke="#1b428a" stroke-width="0.2"/><path d="M32.048,72.035H12.665a.408.408,0,0,0-.365.44v3.171a.492.492,0,0,0,.107.313.336.336,0,0,0,.259.129H32.048a.336.336,0,0,0,.259-.129.492.492,0,0,0,.107-.313V72.475A.408.408,0,0,0,32.048,72.035Zm-.365,3.17H13.03V72.917H31.684Z" transform="translate(-12.3 -50.394)" fill="#1b428a" stroke="#1b428a" stroke-width="0.2"/></g></g></svg>