<svg xmlns="http://www.w3.org/2000/svg" xmlns:xlink="http://www.w3.org/1999/xlink" width="38" height="38" viewBox="0 0 38 38"><defs><clipPath id="b"><rect width="38" height="38"/></clipPath></defs><g id="a" clip-path="url(#b)"><g transform="translate(1)"><g transform="translate(0)"><path d="M18.433,20.512c0,7.963-2,10.4-3.222,11.1A3.249,3.249,0,0,0,13.6,34.358a3.5,3.5,0,0,0,3.662,3.318h8.153A5.991,5.991,0,0,0,31.371,42.1a6,6,0,0,0,5.956-4.38h8.153A3.528,3.528,0,0,0,49.142,34.4a3.194,3.194,0,0,0-1.611-2.743c-1.221-.752-3.222-3.185-3.222-11.1,0-7.432-4.98-10.4-8.641-11.634a4.93,4.93,0,0,0,.1-.841A4.185,4.185,0,0,0,31.371,4.1a4.185,4.185,0,0,0-4.394,3.981,4.93,4.93,0,0,0,.1.841C23.413,10.072,18.433,13.08,18.433,20.512ZM31.371,40.331a4.191,4.191,0,0,1-3.955-2.61h7.909A4.191,4.191,0,0,1,31.371,40.331ZM47.189,34.4a1.655,1.655,0,0,1-1.709,1.548H17.262A1.655,1.655,0,0,1,15.553,34.4a1.435,1.435,0,0,1,.586-1.15H46.7A1.679,1.679,0,0,1,47.189,34.4ZM31.371,5.825a2.312,2.312,0,0,1,2.441,2.212.889.889,0,0,1-.049.354,13.311,13.311,0,0,0-4.833,0c0-.133-.049-.221-.049-.354A2.388,2.388,0,0,1,31.371,5.825Zm-2.588,4.424h.049a10.282,10.282,0,0,1,2.588-.31,9.046,9.046,0,0,1,2.539.354h.049c3.808.973,8.4,3.539,8.4,10.263,0,5.132.781,8.8,2.392,10.971h-26.8c1.562-2.212,2.392-5.884,2.392-10.971C20.386,13.788,24.927,11.222,28.784,10.249Z" transform="translate(-13.6 -4.1)" fill="#1b428a"/><path d="M32.781,29.982h.139a.94.94,0,0,0,.924-.786c.37-2.727,3.189-4.391,3.235-4.391a.912.912,0,0,0-.924-1.571c-.139.092-3.651,2.126-4.16,5.777A.936.936,0,0,0,32.781,29.982Z" transform="translate(-22.917 -14.769)" fill="#1b428a"/></g></g></g></svg>