<svg xmlns="http://www.w3.org/2000/svg" xmlns:xlink="http://www.w3.org/1999/xlink" width="274" height="277" viewBox="0 0 274 277"><defs><clipPath id="b"><rect width="274" height="277"/></clipPath></defs><g id="a" clip-path="url(#b)"><g transform="translate(-1633.188 27.359)"><path d="M337.08,174.28c-1.271,2.035-2.322,3.989-3.411,6.016-1.085,2.007-2.068,4.071-3.031,6.153a88.533,88.533,0,0,0-4.861,13.086c-.17.565-.3,1.163-.44,1.749l-.209.883-.1.44-.123.727a12.739,12.739,0,0,0,.3,4.908,27.8,27.8,0,0,0,2.965,7.107,56.728,56.728,0,0,0,8.469,11.125l4.013-3.038a106.651,106.651,0,0,1-5.372-11.472,24.2,24.2,0,0,1-1.454-5.368,4.24,4.24,0,0,1,.078-1.684l.377-1.165c.156-.478.294-.954.484-1.436a105.391,105.391,0,0,1,5.022-11.517c1.875-3.794,3.952-7.657,6-11.262Z" transform="translate(1472.595 -151.273)" fill="#ff8b7b"/><path d="M330.58,224.425l4.376,2.324-5.031,5.89s-3.14-2.124-3.281-5.368Z" transform="translate(1481.644 -153.627)" fill="#ff8b7b"/><path d="M331.385,230.494l-5.391,4.277-5.528-2.018,5.03-5.89Z" transform="translate(1491.104 -153.742)" fill="#ff8b7b"/><g transform="translate(1633.188 -27.359)"><g transform="translate(0)"><path d="M242.93,350.328H107.6l-7.408-217.647H235.522Z" transform="translate(-100.188 -125.927)" fill="#407bff"/><g transform="translate(6.983)"><path d="M250.016,343.241H114.682l-7.408-217.647H242.608Z" transform="translate(-107.274 -125.594)" fill="#407bff"/><path d="M250.016,343.241H114.682l-7.408-217.647H242.608Z" transform="translate(-107.274 -125.594)" fill="#fff" opacity="0.3"/></g><g transform="translate(22.695 8.589)"><ellipse cx="37.426" cy="38.722" rx="37.426" ry="38.722" transform="matrix(0.701, -0.713, 0.713, 0.701, 0, 53.376)" fill="#407bff"/><path d="M210.373,189.541a30.494,30.494,0,0,1-3.288,14.966,30.119,30.119,0,0,1-27.061,16.453,32.68,32.68,0,0,1-28.182-16.453,32,32,0,0,1-4.306-14.966,30.16,30.16,0,0,1,30.349-31.418A32.742,32.742,0,0,1,210.373,189.541Z" transform="translate(-125.105 -135.711)" fill="#fff"/><path d="M207.3,206.38a30.119,30.119,0,0,1-27.061,16.453,32.68,32.68,0,0,1-28.182-16.453,48.183,48.183,0,0,1,27.338-8.369A50.919,50.919,0,0,1,207.3,206.38Z" transform="translate(-125.318 -137.583)" fill="#407bff" opacity="0.6"/><ellipse cx="13.759" cy="14.235" rx="13.759" ry="14.235" transform="matrix(0.701, -0.713, 0.713, 0.701, 33.687, 42.913)" fill="#407bff" opacity="0.6"/></g><path d="M211.88,328.089h-56.2l-.38-11.167h56.2Z" transform="translate(-102.844 -164.794)" fill="#407bff"/><g transform="translate(32.398 116.259)"><path d="M156.725,267.655H137.457l-.13-14.394h19.267Z" transform="translate(-137.327 -253.261)" fill="#fff"/><path d="M156.269,261.46a2.391,2.391,0,0,1-2.407,2.491,2.6,2.6,0,0,1-2.575-2.491,2.391,2.391,0,0,1,2.406-2.491A2.6,2.6,0,0,1,156.269,261.46Z" transform="translate(-144.288 -254.313)" fill="#263238"/><g transform="translate(24.172)"><path d="M156.725,267.655H137.457l-.13-14.394h19.267Z" transform="translate(-137.327 -253.261)" fill="#fff"/><path d="M156.269,261.46a2.391,2.391,0,0,1-2.407,2.491,2.6,2.6,0,0,1-2.575-2.491,2.391,2.391,0,0,1,2.406-2.491A2.6,2.6,0,0,1,156.269,261.46Z" transform="translate(-144.288 -254.313)" fill="#263238"/></g><g transform="translate(48.344)"><path d="M156.725,267.655H137.457l-.13-14.394h19.267Z" transform="translate(-137.327 -253.261)" fill="#fff"/><path d="M156.269,261.46a2.391,2.391,0,0,1-2.407,2.491,2.6,2.6,0,0,1-2.575-2.491,2.391,2.391,0,0,1,2.406-2.491A2.6,2.6,0,0,1,156.269,261.46Z" transform="translate(-144.288 -254.313)" fill="#263238"/></g><g transform="translate(72.515)"><path d="M156.725,267.655H137.457l-.13-14.394h19.267Z" transform="translate(-137.327 -253.261)" fill="#fff"/><path d="M156.269,261.46a2.391,2.391,0,0,1-2.407,2.491,2.6,2.6,0,0,1-2.575-2.491,2.391,2.391,0,0,1,2.406-2.491A2.6,2.6,0,0,1,156.269,261.46Z" transform="translate(-144.288 -254.313)" fill="#263238"/></g></g></g></g><g transform="translate(1803.827 -25.493)"><g transform="translate(0)"><path d="M333.482,174.28c1.271,2.035,2.322,3.989,3.411,6.016,1.085,2.007,2.068,4.071,3.031,6.153a88.529,88.529,0,0,1,4.861,13.086c.17.565.3,1.163.44,1.749l.209.883.1.44.123.727a12.739,12.739,0,0,1-.3,4.908,27.8,27.8,0,0,1-2.965,7.107,56.73,56.73,0,0,1-8.469,11.125l-4.013-3.038a106.638,106.638,0,0,0,5.372-11.472,24.2,24.2,0,0,0,1.454-5.368,4.242,4.242,0,0,0-.078-1.684l-.377-1.165c-.156-.478-.294-.954-.484-1.436a105.373,105.373,0,0,0-5.022-11.517c-1.875-3.794-3.952-7.657-6-11.262Z" transform="translate(-281.37 -129.746)" fill="#ff8b7b"/><path d="M331.02,224.425l-4.376,2.324,5.031,5.89s3.14-2.124,3.281-5.368Z" transform="translate(-281.458 -132.1)" fill="#ff8b7b"/><path d="M320.466,230.494l5.391,4.277,5.528-2.018-5.031-5.89Z" transform="translate(-281.168 -132.214)" fill="#ff8b7b"/><path d="M301.088,141.511c-.108.53-.476.9-.823.831s-.539-.557-.432-1.087.476-.9.822-.832S301.2,140.981,301.088,141.511Z" transform="translate(-280.198 -128.156)" fill="#263238"/><path d="M300.533,142.522a19.351,19.351,0,0,1-3.453,4.017,3.117,3.117,0,0,0,2.435.989Z" transform="translate(-280.07 -128.255)" fill="#ff5652"/><path d="M303.679,138.812a.313.313,0,0,0,.215-.085.317.317,0,0,0,.018-.448,3.151,3.151,0,0,0-2.7-1.051.317.317,0,0,0,.1.626h0a2.518,2.518,0,0,1,2.13.856A.317.317,0,0,0,303.679,138.812Z" transform="translate(-280.251 -128.005)" fill="#263238"/><path d="M315.865,151.683c-.962,4.9-1.542,11.7,1.889,14.972,0,0-1.341,4.975-10.453,4.975-10.02,0-4.821-4.366-4.821-4.366,4.165-1.293,4.129-6.038,3.176-9.848Z" transform="translate(-280.26 -128.685)" fill="#ff8b7b"/><path d="M319.647,170.5c.892-1.264.856-5.256-.1-5.96-1.538-1.138-8.117-1.4-16.98.639.954,3.868-1.089,5.895-1.089,5.895Z" transform="translate(-280.277 -129.247)" fill="#407bff"/><path d="M351.7,408.167a2.159,2.159,0,0,1-1.669-.091.648.648,0,0,1-.153-.738.735.735,0,0,1,.409-.467c.905-.432,2.985.415,3.074.452a.161.161,0,0,1,.1.142.158.158,0,0,1-.09.148A8.437,8.437,0,0,1,351.7,408.167Zm-1.09-1.071a.863.863,0,0,0-.187.062.425.425,0,0,0-.241.271c-.085.286.021.376.056.4.36.307,1.7.024,2.642-.354A5.235,5.235,0,0,0,350.613,407.1Z" transform="translate(-282.546 -140.658)" fill="#407bff"/><path d="M353.386,407.535a.152.152,0,0,1-.077,0c-.758-.221-2.38-1.373-2.4-2.133a.519.519,0,0,1,.407-.514.865.865,0,0,1,.7.056c.9.458,1.462,2.314,1.486,2.392a.161.161,0,0,1-.039.158A.165.165,0,0,1,353.386,407.535Zm-1.9-2.369a.62.62,0,0,0-.07.019c-.2.069-.193.165-.192.206.011.45,1.081,1.353,1.866,1.719a3.832,3.832,0,0,0-1.218-1.886A.565.565,0,0,0,351.489,405.166Z" transform="translate(-282.597 -140.569)" fill="#407bff"/><path d="M299.762,409.337c-.86,0-1.691-.118-1.969-.505a.6.6,0,0,1,.013-.694.79.79,0,0,1,.5-.371c1.115-.3,3.458,1.031,3.558,1.088a.159.159,0,0,1-.049.293A11.8,11.8,0,0,1,299.762,409.337Zm-1.063-1.3a1.183,1.183,0,0,0-.307.036.48.48,0,0,0-.311.222c-.112.2-.071.3-.032.352.313.433,2.006.443,3.253.267A7.165,7.165,0,0,0,298.7,408.037Z" transform="translate(-280.099 -140.704)" fill="#407bff"/><path d="M301.873,409.073a.156.156,0,0,1-.065-.014c-.809-.363-2.412-1.813-2.289-2.57.029-.178.155-.4.591-.444a1.157,1.157,0,0,1,.881.273,4.533,4.533,0,0,1,1.041,2.583.158.158,0,0,1-.065.144A.165.165,0,0,1,301.873,409.073Zm-1.635-2.718a.8.8,0,0,0-.1.006c-.286.029-.3.141-.31.178-.073.455,1.016,1.594,1.841,2.09a3.722,3.722,0,0,0-.885-2.067A.844.844,0,0,0,300.237,406.355Z" transform="translate(-280.184 -140.625)" fill="#407bff"/><path d="M309.361,408.292h-6.7l-.668-15.524h6.7Z" transform="translate(-280.3 -140.002)" fill="#ff8b7b"/><path d="M360.7,405.088l-6.552,1.419-6.578-14.46,6.552-1.418Z" transform="translate(-282.44 -139.902)" fill="#ff8b7b"/><path d="M353.345,406.519l7.36-1.594a.585.585,0,0,1,.655.327l2.555,5.543a.986.986,0,0,1-.707,1.374c-2.579.512-3.86.632-7.1,1.332-1.991.431-6.487,1.526-9.237,2.121-2.689.582-3.7-2.046-2.625-2.536,4.808-2.2,6.818-4.132,8.119-5.935A1.63,1.63,0,0,1,353.345,406.519Z" transform="translate(-282.264 -140.572)" fill="#263238"/><path d="M301.939,408.242h7.321a.584.584,0,0,1,.57.457l1.325,5.958a.975.975,0,0,1-.964,1.192c-2.641-.045-6.457-.2-9.776-.2-3.882,0-7.234.212-11.785.212-2.751,0-3.516-2.782-2.364-3.035,5.244-1.147,9.526-1.269,14.058-4.064A3.1,3.1,0,0,1,301.939,408.242Z" transform="translate(-279.538 -140.728)" fill="#263238"/><g transform="translate(41.021 39.305)"><path d="M330.75,168.973c6.283,1.441,11.462,17.48,11.462,17.48L329.6,196.069a27.529,27.529,0,0,1-6.691-12.389C320.744,175.274,324.325,167.5,330.75,168.973Z" transform="translate(-322.274 -168.793)" fill="#407bff"/><path d="M330.75,168.973c6.283,1.441,11.462,17.48,11.462,17.48L329.6,196.069a27.529,27.529,0,0,1-6.691-12.389C320.744,175.274,324.325,167.5,330.75,168.973Z" transform="translate(-322.274 -168.793)" opacity="0.4"/></g><path d="M325.379,181.358c3.413,3.377,4.526,9.527,4.79,14.874l-.556.429a27.552,27.552,0,0,1-6.7-12.392c-.128-.5-.237-1-.329-1.5Z" transform="translate(-281.267 -130.078)" opacity="0.2"/><g transform="translate(8.649 37.746)"><path d="M289.452,175.618c-1.37,7.242-2.227,22.114,1.751,51.565h35.855c.247-5.5-3.211-32.353,2.1-58.287a93.527,93.527,0,0,0-12-1.515,131.7,131.7,0,0,0-15.242,0c-1.681.154-3.331.4-4.8.657A9.488,9.488,0,0,0,289.452,175.618Z" transform="translate(-288.307 -167.157)" fill="#407bff"/><path d="M289.452,175.618c-1.37,7.242-2.227,22.114,1.751,51.565h35.855c.247-5.5-3.211-32.353,2.1-58.287a93.527,93.527,0,0,0-12-1.515,131.7,131.7,0,0,0-15.242,0c-1.681.154-3.331.4-4.8.657A9.488,9.488,0,0,0,289.452,175.618Z" transform="translate(-288.307 -167.157)" opacity="0.4"/></g><path d="M294.939,187.19l-6.479-1.552c-.2,3.924-.218,8.788.073,14.8C291.517,197.044,295.322,191.752,294.939,187.19Z" transform="translate(-279.658 -130.279)" opacity="0.2"/><g transform="translate(21.691 250.73)"><path d="M301.991,392.772l.343,8h6.706l-.343-8Z" transform="translate(-301.991 -390.732)" opacity="0.2"/><path d="M354.128,390.632l-6.554,1.419,3.394,7.453,6.554-1.419Z" transform="translate(-304.131 -390.632)" opacity="0.2"/></g><path d="M318.949,143.587c-1.722,6.426-2.4,10.275-6.369,12.947-5.965,4.019-13.392-.594-13.624-7.405-.21-6.13,2.642-15.609,9.538-16.9A9.074,9.074,0,0,1,318.949,143.587Z" transform="translate(-280.157 -127.764)" fill="#ff8b7b"/><path d="M304.1,143.92c-.317-.863-1.8-7.5-.409-9.227s17.261-.484,19.607,1.825c3.892,3.83,1.192,7.249-3.07,11.66-3.2,3.316-3.328,7.055-4.945,7.6-2.832.962-7.224.058-8.106-2.966S304.1,143.92,304.1,143.92Z" transform="translate(-280.353 -127.849)" fill="#263238"/><path d="M321.2,128.667c-5.609-2.387-16.124.253-21.8-1.115a8.747,8.747,0,0,0,7.249,8.923,74.772,74.772,0,0,0,14.3,1.318C327.179,137.539,325.962,130.7,321.2,128.667Z" transform="translate(-280.178 -127.552)" fill="#263238"/><path d="M323.194,136.8a10.639,10.639,0,0,0,5.931-1.138C330.177,138.2,324.412,138.9,323.194,136.8Z" transform="translate(-281.296 -127.933)" fill="#263238"/><path d="M307.1,144.554A7.52,7.52,0,0,1,305.215,149c-1.461,1.611-2.987.608-3.245-1.353-.234-1.765.246-4.729,2.033-5.617C305.763,141.154,307.217,142.565,307.1,144.554Z" transform="translate(-280.297 -128.219)" fill="#ff8b7b"/><path d="M304.69,230.14s7.608,51.231,11.785,70.422c4.574,21.018,29.1,90.554,29.1,90.554l12-2.6s-17.148-56.667-20.987-86.05c-2.948-22.57-8.759-72.328-8.759-72.328Z" transform="translate(-280.427 -132.368)" fill="#407bff"/><path d="M344.571,394.712c-.051.01,2.237,4.339,2.237,4.339l13.5-2.923-1.138-4.059Z" transform="translate(-282.299 -139.969)" fill="#263238"/><path d="M309.637,249.289c8.8,1.725,7.867,34.529,6.808,51.4-2.537-11.927-6.251-34.876-8.787-51.165A3.006,3.006,0,0,1,309.637,249.289Z" transform="translate(-280.566 -133.263)" opacity="0.3"/><path d="M291.322,230.14s-.923,50.121-.194,70.564c.759,21.263,8.186,90.885,8.186,90.885h11.356s.417-68.38.923-89.263c.551-22.766,3.3-72.186,3.3-72.186Z" transform="translate(-279.777 -132.368)" fill="#407bff"/><path d="M297.437,394.8c-.052,0,.64,4.715.64,4.715h13.815l.374-4.208Z" transform="translate(-280.086 -140.097)" fill="#263238"/><g transform="translate(0 38.676)"><path d="M303.077,177.863c3.214,8.662-15.67,18.866-15.67,18.866l-8.175-10.51s5.453-10.856,12.147-15.749C299.647,164.424,300.63,171.269,303.077,177.863Z" transform="translate(-279.232 -168.133)" fill="#407bff"/><path d="M303.077,177.863c3.214,8.662-15.67,18.866-15.67,18.866l-8.175-10.51s5.453-10.856,12.147-15.749C299.647,164.424,300.63,171.269,303.077,177.863Z" transform="translate(-279.232 -168.133)" opacity="0.4"/></g></g></g></g></g></svg>