<svg xmlns="http://www.w3.org/2000/svg" width="166.333" height="168.633" viewBox="0 0 166.333 168.633"><g transform="translate(-1071 -273)"><path d="M10.821,49.726c-.3,0-.61-.006-.919-.017a45.808,45.808,0,0,1-8.489-1.051C.3,48.4-.077,47.975.013,47.083a1.631,1.631,0,0,1,1.729-1.5c.065,0,.131,0,.2.008.742.088,1.5.221,2.225.349s1.492.263,2.237.351a29.643,29.643,0,0,0,3.938.285,19.855,19.855,0,0,0,3.938-.372,13,13,0,0,0,7.264-4.2c.61-.611.527-.958.175-1.663a90.8,90.8,0,0,1-8.051-21.09,3.035,3.035,0,0,1-.176-.875,1.938,1.938,0,0,1,.3-1.57,1.638,1.638,0,0,1,1.3-.451c.077,0,.157,0,.24.007,3.83.25,7.924.517,12.163.788l4.813.263,4.813.263a2.484,2.484,0,0,0,.272.016c.628,0,.942-.313,1.3-.891q.461-.867.921-1.726c1.153-2.156,2.344-4.384,3.455-6.676l.219-.417.007-.013A25.544,25.544,0,0,1,46.043,3.5,8.482,8.482,0,0,1,52.662,0a9.025,9.025,0,0,1,5.544,2.1,18.91,18.91,0,0,1,4.2,4.988c1.576,2.578,2.942,5.264,4.263,7.862l0,.007c.293.576.6,1.171.9,1.757a2.419,2.419,0,0,0,2.538,1.488c2.627-.059,5.286-.1,7.857-.137,5.129-.077,10.433-.156,15.683-.389.655-.03,1.308-.07,1.94-.109,1.219-.075,2.478-.153,3.748-.153a8.284,8.284,0,0,1,5.951,2.362,27.485,27.485,0,0,1,3.763,4.638c.441.662.606.91.978.91a4.081,4.081,0,0,0,.947-.21c5.376-1.571,10.929-3.346,16.977-5.426l.01,0a25.362,25.362,0,0,1,5.065-1.221c.314-.029.625-.043.924-.043a7.556,7.556,0,0,1,4.327,1.268,4.839,4.839,0,0,1,1.925,2.626c.177.53.4.746.763.746a2.1,2.1,0,0,0,.638-.133c3.273-1.091,6.832-2.12,11.2-3.239,3.067-.786,6.416-1.5,10.239-2.187a4.569,4.569,0,0,1,.608-.091c.2-.021.408-.043.617-.085.087-.006.173-.009.255-.009a1.541,1.541,0,0,1,1.757,1.5c.087.959-.355,1.4-1.575,1.575-3.929.575-7.723,1.471-10.588,2.188-4.441,1.134-8.686,2.45-12.252,3.588a1.361,1.361,0,0,0-1.137,1.488,58.5,58.5,0,0,1-2.188,16.1A11.153,11.153,0,0,1,137.315,47a3.856,3.856,0,0,1-3.494,2.226,5.646,5.646,0,0,1-1.144-.126,8.374,8.374,0,0,1-4.114-2.1,27.015,27.015,0,0,1-6.913-8.751,9.577,9.577,0,0,1-1.138-4.9,4.523,4.523,0,0,1,1.926-3.588,10.469,10.469,0,0,1,3.762-1.75c2.043-.562,4.056-1.253,6-1.921,1.385-.476,2.816-.967,4.237-1.4.587-.181.871-.358.949-.591s-.043-.549-.423-1.071a3.7,3.7,0,0,0-3.159-1.53,5.926,5.926,0,0,0-.692.042,14.21,14.21,0,0,0-3.325.788c-6.793,2.332-12.41,4.139-17.676,5.688,0,.434-.168.523-.525.613.37.693.739,1.313,1.1,1.912.323.541.627,1.052.916,1.588a60.147,60.147,0,0,1,5.075,11.989,6.035,6.035,0,0,1,.438,2.188,2.744,2.744,0,0,1-2.275,3.063h-.005a11.072,11.072,0,0,1-2.184.285c-.177,0-.353-.008-.523-.024-3.15-.233-6.32-.233-9.386-.233-1.538,0-3.128,0-4.7-.029h-.064c-3.98-.086-8.1-.176-12.1-.611a14.982,14.982,0,0,1-6.038-1.8,12.21,12.21,0,0,1-4.463-4.5A33.391,33.391,0,0,1,75.62,39.47c-.484-.847-.63-1.1-1.1-1.1a5.305,5.305,0,0,0-.914.14c-4.309,1-8.708,2.04-12.962,3.045-4.308,1.017-8.759,2.069-13.116,3.081-3.9.954-7.872,1.837-11.71,2.69l-.1.023a17.741,17.741,0,0,1-3.527.389,12.865,12.865,0,0,1-1.812-.126A9.647,9.647,0,0,1,24.6,44.72l-.525-.525a.278.278,0,0,1-.175-.088l-.011.011c-.427.427-.868.868-1.389,1.3a15.058,15.058,0,0,1-5.428,3.318A18.914,18.914,0,0,1,10.821,49.726Zm97.338-20a4.084,4.084,0,0,0-.947.21c-3.047.827-6.166,1.667-9.182,2.48h0c-3.043.82-6.19,1.668-9.278,2.506-3.406.873-6.94,1.756-10.5,2.625.812,1.443,1.494,2.636,2.188,3.763a8.567,8.567,0,0,0,6.3,4.2,46.569,46.569,0,0,0,7,.612c1.411.036,2.841.076,4.223.114h.013c4.441.124,9.033.253,13.531.253.95,0,1.892-.006,2.8-.017.972,0,1.469-.046,1.664-.308s.1-.7-.176-1.618c-.087-.087-.087-.087-.087-.175a72.912,72.912,0,0,0-6.563-13.739C108.7,29.97,108.53,29.722,108.159,29.722ZM137.366,28.1a1.544,1.544,0,0,0-.326.043,1.247,1.247,0,0,1-.251.035c-1.357.429-2.74.91-4.077,1.375-1.951.679-3.967,1.381-5.987,1.951-1.568.493-2.422,1.06-2.769,1.839s-.2,1.806.494,3.324a23.271,23.271,0,0,0,6.65,8.489,5.435,5.435,0,0,0,1.485.961,2.768,2.768,0,0,0,1.07.264,1.688,1.688,0,0,0,1.47-1.05,15.021,15.021,0,0,0,.613-1.837c.117-.535.239-1.079.358-1.605a69.79,69.79,0,0,0,1.305-6.883,35.217,35.217,0,0,0,.35-6.826A1.026,1.026,0,0,0,137.366,28.1ZM40.609,21.153a1.338,1.338,0,0,0-1.217.728A149.106,149.106,0,0,1,26.528,41.045a.907.907,0,0,0,.087,1.4,6.4,6.4,0,0,0,4.113,2.187,11.281,11.281,0,0,0,1.441.091,20.691,20.691,0,0,0,4.509-.615L67.132,37.02l.054-.014c2.047-.512,4.164-1.041,6.334-1.562-.044-.132-.089-.244-.132-.352s-.087-.218-.131-.348c-1.241-2.59-2.6-5.153-3.92-7.632l0,0c-.817-1.537-1.661-3.127-2.466-4.7-.253-.589-.656-.7-1.313-.7-3.506,0-6.868-.082-10.428-.169l-.248-.006c-4.561-.086-9.277-.175-13.914-.35A2.505,2.505,0,0,0,40.609,21.153ZM17.252,19.868c0,1.458,1.138,5.353,2.9,9.921,1.434,3.722,3.313,7.888,4.277,8.806a175.069,175.069,0,0,0,11.814-17.59C29.835,20.573,23.6,20.221,17.252,19.868Zm53.03,1.837h0a1.08,1.08,0,0,0,.074.858,1.965,1.965,0,0,1,.1.28c.961,1.79,1.916,3.611,2.839,5.372l.005.01c.925,1.764,1.882,3.588,2.845,5.382.407.7.544.933.952.933a4.857,4.857,0,0,0,.881-.145h0c9.974-2.47,18.933-4.817,27.39-7.176a8.173,8.173,0,0,0,1.137-.35,27.548,27.548,0,0,0-3.413-4.2,4.854,4.854,0,0,0-3.15-1.488,19.53,19.53,0,0,0-2.275-.088c-6.542.32-13.355.514-21.44.613ZM52.78,3.548a5.261,5.261,0,0,0-3.15,1.181,9.328,9.328,0,0,0-2.713,3.15c-1.189,1.982-2.247,4.1-3.27,6.157-.556,1.116-1.131,2.269-1.718,3.381-.174.261-.261.438,0,.7,8.338.387,16.633.437,22.927.437-.815-1.411-1.535-2.844-2.231-4.23a40.135,40.135,0,0,0-4.157-7.058,11.661,11.661,0,0,0-2.538-2.538A5.261,5.261,0,0,0,52.78,3.548Z" transform="translate(1071.043 273)" fill="#ee7202"/><path d="M20.686,64.045a22.49,22.49,0,0,1-6.152-.776A18.435,18.435,0,0,1,1.758,50.843,29.661,29.661,0,0,1,2.2,29.578c2.978-7.572,8.778-11.959,17.239-13.039a24.116,24.116,0,0,1,2.8-.169,20.216,20.216,0,0,1,5.949.869,13.623,13.623,0,0,1,7.263,5.251,2.492,2.492,0,0,1,.207.244,3.6,3.6,0,0,0,.318.368,1.218,1.218,0,0,0,.2-.984c-.011-.108-.022-.219-.022-.328V.613c0-.435.178-.613.613-.613h6.126A.553.553,0,0,1,43.5.613V61.869a.984.984,0,0,1-.16.778.763.763,0,0,1-.6.2,2.365,2.365,0,0,1-.293-.02H37.374c-1.225,0-1.225,0-1.225-1.225v-4.9a13.173,13.173,0,0,1-5.644,5.4,20.2,20.2,0,0,1-7.482,1.859C22.182,64.02,21.418,64.045,20.686,64.045Zm1.622-42.133a12.853,12.853,0,0,0-1.911.141,12.751,12.751,0,0,0-10.151,7.7A25.138,25.138,0,0,0,8.321,43.142a21.44,21.44,0,0,0,2.363,8.313c2.508,4.586,6.252,6.912,11.128,6.912a17.864,17.864,0,0,0,2.962-.261c4.967-.828,8.382-3.89,10.151-9.1a25.987,25.987,0,0,0,1.225-9.364c0-.236.005-.473.011-.724a12.453,12.453,0,0,0-.1-2.339,18.756,18.756,0,0,0-1.75-7.263A13.233,13.233,0,0,0,22.309,21.912Z" transform="translate(1165.471 334.96)" fill="#ee7202"/><path d="M6.583,63.4l-.288,0c-.129,0-.273,0-.432,0H1.05c-1.05,0-1.05,0-1.05-1.137V2.485C0,1.172,0,1.172,1.313,1.172H6.126c1.312,0,1.312,0,1.312,1.313V6.248a3.539,3.539,0,0,0,.088.962h.262A12.171,12.171,0,0,1,12,2.628,15.914,15.914,0,0,1,17.852.473,28.561,28.561,0,0,1,22.89,0,20.721,20.721,0,0,1,29.4,1a18.481,18.481,0,0,1,7.712,4.54,19.863,19.863,0,0,1,4.627,7.624,30.124,30.124,0,0,1-.525,21.965,19.957,19.957,0,0,1-6.125,8.3,21.337,21.337,0,0,1-9.539,4.036,21.9,21.9,0,0,1-4.171.4,22.152,22.152,0,0,1-5.367-.664,13.52,13.52,0,0,1-7.876-5.426,1.918,1.918,0,0,0-.35-.437.046.046,0,0,0-.009-.033c-.011-.011-.032-.011-.067-.011a.788.788,0,0,1-.274-.044V61.9q0,.124,0,.234v0c0,.64,0,.962-.15,1.115C7.171,63.376,6.967,63.4,6.583,63.4ZM21.722,5.707h0a15.488,15.488,0,0,0-4.833.8c-4.134,1.378-6.882,4.355-8.4,9.1a23.425,23.425,0,0,0-1.051,8.313c0,.376,0,.737-.005,1.085A21.819,21.819,0,0,0,7.7,29.525a22.661,22.661,0,0,0,.788,3.326,13.164,13.164,0,0,0,12.644,9.311,15.179,15.179,0,0,0,3.72-.472c4.41-1.144,7.5-4.147,9.188-8.926a27.866,27.866,0,0,0,.7-14.964,25.636,25.636,0,0,0-1.488-4.376c-2.24-4.9-6.443-7.716-11.531-7.716Z" transform="translate(1071.056 351.201)" fill="#ee7202"/><path d="M168.789,205.849h7c.525,0,.613.35.787.7.263.788.438,1.575.7,2.275a9.17,9.17,0,0,0,7.963,5.776,12.884,12.884,0,0,0,6.038-.613c2.275-.875,4.025-2.275,4.375-4.813a6.192,6.192,0,0,0-2.8-6.476,23.906,23.906,0,0,0-6.3-2.8,57.262,57.262,0,0,1-6.563-2.1,23.565,23.565,0,0,1-5.25-2.888,11.091,11.091,0,0,1-4.288-10.764c.7-5.338,3.675-8.751,8.663-10.414a20.789,20.789,0,0,1,14,.087c5.688,2.013,8.576,6.388,9.538,12.251.088.525-.175.7-.612.7h-6.3c-.613,0-.788-.263-.875-.788a5.557,5.557,0,0,0-.525-1.575c-1.75-4.638-5.6-6.476-10.063-6.038-.525.088-1.138.175-1.663.263a5.77,5.77,0,0,0-4.55,4.988,6.271,6.271,0,0,0,2.625,6.563,21.583,21.583,0,0,0,6.038,2.538,60.066,60.066,0,0,1,6.738,2.1,25.685,25.685,0,0,1,5.251,2.888c3.588,2.8,4.9,6.563,4.55,11.026-.438,4.988-3.15,8.226-7.7,9.976a23.9,23.9,0,0,1-16.714.438c-5.688-1.838-8.838-6.126-9.976-11.9A2.371,2.371,0,0,1,168.789,205.849Z" transform="translate(953.809 178.641)" fill="#ee7202"/><path d="M1.456,13.953H.581c-.363,0-.525-.189-.525-.612V1.527a2.674,2.674,0,0,0-.028-.32C-.018.838-.066.457.405.389.512.359.623.321.74.281a2.883,2.883,0,0,1,.9-.207.867.867,0,0,1,.7.315c.152.19.278.275.41.275a.79.79,0,0,0,.35-.128l.115-.06A6.792,6.792,0,0,1,5.546,0,3.389,3.389,0,0,1,8.077,1,5.438,5.438,0,0,1,9.332,4.94,5.566,5.566,0,0,1,7.9,8.77a4.907,4.907,0,0,1-3.627,1.414,7.379,7.379,0,0,1-1.063-.08,3.376,3.376,0,0,1-.788-.088v2.975a.909.909,0,0,1-.141.732A1.046,1.046,0,0,1,1.456,13.953ZM4.7,1.921a3.211,3.211,0,0,0-.877.131c-1.207.345-1.4.5-1.4,1.838V6.865c0,1.186.327,1.648,1.167,1.648a3.66,3.66,0,0,0,.67-.072A2.5,2.5,0,0,0,6.269,7.128,4.646,4.646,0,0,0,6.444,3.1,1.718,1.718,0,0,0,4.7,1.921Z" transform="translate(1071 427.68)" fill="#ee7303"/><path d="M4.7,10.378A4.438,4.438,0,0,1,1.278,8.961,5.725,5.725,0,0,1,0,5.07,5.273,5.273,0,0,1,1.508,1.412,4.826,4.826,0,0,1,4.934,0,5.43,5.43,0,0,1,7.7.783,4.248,4.248,0,0,1,9.626,3.32,7.4,7.4,0,0,1,9.713,7a4.121,4.121,0,0,1-3.238,3.15A7.344,7.344,0,0,1,4.7,10.378Zm.2-8.37A2.054,2.054,0,0,0,2.625,3.582,5.11,5.11,0,0,0,2.713,7a2.175,2.175,0,0,0,2.123,1.5c.078,0,.159,0,.24-.009a2.075,2.075,0,0,0,2.1-1.75,3.814,3.814,0,0,0,.2-.982c.019-.166.038-.337.067-.506-.03-.176-.05-.355-.069-.528A5.021,5.021,0,0,0,7.176,3.67,2.175,2.175,0,0,0,4.9,2.007Z" transform="translate(1141.588 427.55)" fill="#ee7303"/><path d="M5.019,10.369a5.721,5.721,0,0,1-2.306-.5C1,9.192.108,7.761,0,5.489A5.719,5.719,0,0,1,1.444,1.483,4.723,4.723,0,0,1,4.933,0a5.9,5.9,0,0,1,2.33.5A4.92,4.92,0,0,1,9.889,5.313,5.322,5.322,0,0,1,8.421,8.969,4.741,4.741,0,0,1,5.019,10.369ZM4.685,1.981A2.157,2.157,0,0,0,2.45,3.914a5.638,5.638,0,0,0,.175,2.975A2.249,2.249,0,0,0,4.836,8.473c.078,0,.159,0,.24-.009a2.163,2.163,0,0,0,2.1-1.837,4.12,4.12,0,0,0,.175-1.4A2.8,2.8,0,0,0,7.176,4,2.2,2.2,0,0,0,4.9,1.988C4.828,1.983,4.755,1.981,4.685,1.981Z" transform="translate(1191.643 427.569)" fill="#ee7303"/><path d="M4.869,10.269a6.342,6.342,0,0,1-2.262-.432,3.4,3.4,0,0,1-2.1-2.013A6.706,6.706,0,0,1,.681,2.311,4.8,4.8,0,0,1,4.868,0,4.089,4.089,0,0,1,7.42.823,4.58,4.58,0,0,1,8.82,5.2c-.087.35-.442.35-.7.35H3.044a.546.546,0,0,0-.445.168.623.623,0,0,0-.079.532A2.309,2.309,0,0,0,4.444,8.262a4.166,4.166,0,0,0,.743.067,4.062,4.062,0,0,0,1.97-.5.925.925,0,0,1,.437-.139c.271,0,.41.215.556.442a1.861,1.861,0,0,0,.232.31.629.629,0,0,1,.133.487c-.053.236-.3.4-.57.563A6.781,6.781,0,0,1,4.869,10.269ZM4.795,1.7c-1.225,0-1.838.613-2.188,2.187.607.041,1.295.088,1.969.088A9.973,9.973,0,0,0,6.545,3.8C6.365,2.268,5.891,1.7,4.795,1.7Z" transform="translate(1084.814 427.684)" fill="#ee7203"/><path d="M207.7,265.076c0-1.225.088-2.538,0-3.763,0-.788.263-1.138.963-1.138.525,0,1.225-.525,1.488.438.087.35.438.087.613,0a7.37,7.37,0,0,1,3.063-.613,2.382,2.382,0,0,1,2.538,2.275c.088,2.363.088,4.726.088,7.088,0,.437-.263.612-.7.612h-.875c-.7.088-.875-.263-.875-.875v-4.9c0-.788.175-1.663-.788-2.1a3.4,3.4,0,0,0-2.888.438c-.35.175-.262.613-.262.963v5.513c0,.35.175.788-.263.875a3.6,3.6,0,0,1-1.925-.087c-.263-.175-.175-.525-.175-.875Z" transform="translate(948.942 167.719)" fill="#ee7304"/><path d="M148.461,261.059a5.151,5.151,0,0,0-.35.7c-.263.7-.7.875-1.4.525a3.99,3.99,0,0,0-2.013-.437,3.113,3.113,0,0,0-.875.175.744.744,0,0,0,0,1.4,9.117,9.117,0,0,0,1.4.525,7.23,7.23,0,0,1,1.925.7,2.77,2.77,0,0,1,1.663,2.8,2.873,2.873,0,0,1-2.188,2.625,7.253,7.253,0,0,1-6.126-.963c-.088-.35.175-.612.35-.875.263-.7.7-.788,1.4-.35a4.173,4.173,0,0,0,2.713.613c.613-.088,1.225-.175,1.4-.875.175-.788-.525-1.05-1.05-1.225a10.6,10.6,0,0,0-1.575-.438c-.263-.088-.613-.175-.875-.263-1.488-.613-2.188-1.488-2.1-2.8a2.871,2.871,0,0,1,2.363-2.538A6.353,6.353,0,0,1,148.461,261.059Z" transform="translate(957.336 167.71)" fill="#ee7303"/><path d="M226.613,257.685c.263.7-.262,1.575.263,2.1.525.612,1.4.175,2.188.262.35,0,.7.088.613.613s.175,1.225-.7,1.225h-1.313c-.613,0-.875.175-.875.787v3.85c.088,1.05.438,1.313,1.4,1.313,1.313,0,1.313,0,1.75,1.313-.437.525-1.138.525-1.75.7-2.188.35-3.675-.7-3.763-2.888a33.655,33.655,0,0,1,0-4.2c0-.612-.175-.963-.875-.875-.788.087-1.05-.263-1.05-.963s.263-.875.875-.875c.525.088.963,0,.963-.787.087-1.488.087-1.488,1.662-1.663A.81.81,0,0,1,226.613,257.685Z" transform="translate(947.091 168.022)" fill="#ee7303"/><path d="M161.276,260.225v.437c-.175,1.225-.175,1.225-1.488,1.225h-.875a.464.464,0,0,0-.525.525v4.376c.087.963.525,1.225,1.663,1.05.438-.088.788-.35,1.05.35.438.963.35,1.225-.7,1.488a6.063,6.063,0,0,1-1.75.263,2.745,2.745,0,0,1-2.713-2.8c-.087-1.4,0-2.8,0-4.2,0-.7-.087-1.225-.963-1.05-.788.088-.875-.262-.875-.963,0-.788.262-.963.963-.875.613.087.875-.175.875-.875.088-1.487.175-1.487,1.663-1.575.525,0,.7.088.788.613,0,.613-.263,1.313.262,1.663.438.263,1.138.088,1.75.088C160.663,260.05,161.013,259.963,161.276,260.225Z" transform="translate(955.635 168.019)" fill="#ee7303"/><path d="M176.4,265.516c0-4.9,3.938-6.3,7.176-5.076.35.175.875.263.7.963-.35.875-.613,1.05-1.313.875a5.348,5.348,0,0,0-1.138-.262c-1.663-.263-2.8.963-2.888,2.975-.088,2.188.7,3.325,2.538,3.325a3.235,3.235,0,0,0,1.838-.525c.788-.438.875.35,1.138.7.35.437.088.7-.263.963a6.042,6.042,0,0,1-5.338.35,3.9,3.9,0,0,1-2.275-3.15A3.23,3.23,0,0,1,176.4,265.516Z" transform="translate(952.849 167.717)" fill="#ee7303"/><path d="M267.249,261.529V268c0,.35.175.963-.263,1.138a2.452,2.452,0,0,1-1.925,0c-.35-.087-.263-.613-.263-.963V254.966c0-.263-.087-.7.263-.7.613-.087,1.313-.438,1.925-.087.35.175.175.613.175.963C267.249,257.241,267.249,259.429,267.249,261.529Z" transform="translate(941.809 168.466)" fill="#ee7406"/><path d="M236.3,265.171c0-1.313.088-2.625,0-3.85,0-.788.35-1.138,1.05-1.138.525,0,1.313-.437,1.575.613.088.35.438,0,.613-.087a3.37,3.37,0,0,1,2.538-.613c.438,0,.788.175.613.7a2.175,2.175,0,0,0-.087.7c0,.7-.263,1.137-1.05.875a1.864,1.864,0,0,0-.7,0,1.906,1.906,0,0,0-1.925,2.013v4.463c0,1.05-.087,1.05-1.313,1.05-1.05,0-1.138,0-1.138-1.05A25.852,25.852,0,0,1,236.3,265.171Z" transform="translate(945.367 167.711)" fill="#ee7507"/></g></svg>