<svg xmlns="http://www.w3.org/2000/svg" xmlns:xlink="http://www.w3.org/1999/xlink" width="42" height="42" viewBox="0 0 42 42"><defs><clipPath id="b"><rect width="42" height="42"/></clipPath></defs><g id="a" clip-path="url(#b)"><g transform="translate(-10.734 -8.25)"><path d="M23.731,25.391H20.212a.738.738,0,0,0-.739.739v3.518a.738.738,0,0,0,.739.739h3.518a.738.738,0,0,0,.739-.739V26.13A.738.738,0,0,0,23.731,25.391Zm-.739,3.518h-2.04V26.87h2.04Z" transform="translate(-4.939 -9.899)" stroke="#000" stroke-width="0.3"/><path d="M23.731,40.66H20.212a.738.738,0,0,0-.739.739v3.518a.738.738,0,0,0,.739.739h3.518a.738.738,0,0,0,.739-.739V41.4A.738.738,0,0,0,23.731,40.66Zm-.739,3.515h-2.04v-2.04h2.04Z" transform="translate(-4.939 -15.718)" stroke="#000" stroke-width="0.3"/><path d="M23.731,55.922H20.212a.738.738,0,0,0-.739.739V60.18a.738.738,0,0,0,.739.739h3.518a.738.738,0,0,0,.739-.739V56.661A.738.738,0,0,0,23.731,55.922Zm-.739,3.518h-2.04V57.4h2.04Z" transform="translate(-4.939 -22.532)" stroke="#000" stroke-width="0.3"/><path d="M36.751,35.2H39.08a.739.739,0,1,0,0-1.479H36.751a.739.739,0,1,0,0,1.479Z" transform="translate(-11.413 -14.709)" stroke="#000" stroke-width="0.3"/><path d="M36.528,50.459h4.845a.739.739,0,1,0,0-1.479H36.528a.739.739,0,0,0,0,1.479Z" transform="translate(-11.024 -20.523)" stroke="#000" stroke-width="0.3"/><path d="M43.331,64.25H36.309a.739.739,0,0,0,0,1.479h7.022a.739.739,0,0,0,0-1.479Z" transform="translate(-10.633 -27.341)" stroke="#000" stroke-width="0.3"/><path d="M48.078,8.25H35.185c-2.4,0-4.343,1.537-4.343,3.424v.934H11.851a.847.847,0,0,0-.929.733V48.419a.847.847,0,0,0,.929.733H30.166a1.084,1.084,0,0,0,.164-.013.357.357,0,0,0,.068-.016c.031-.008.068-.013.1-.025s.041-.016.068-.029l.1-.038a.71.71,0,0,0,.143-.092l7.89-6.221a.683.683,0,0,0,.143-.155c.01-.013.021-.029.031-.043a.507.507,0,0,0,.079-.177.621.621,0,0,0,.017-.137V24.778l3.445-1.868h5.667c2.4,0,4.343-1.537,4.343-3.424v-7.8c0-1.889-1.95-3.424-4.343-3.424Zm2.485,11.228a2.274,2.274,0,0,1-2.485,1.959H42.125a1.111,1.111,0,0,0-.525.129l-5.156,2.788.606-2.018a.623.623,0,0,0-.174-.623,1.034,1.034,0,0,0-.728-.281h-.96A2.274,2.274,0,0,1,32.7,19.473v-7.8A2.274,2.274,0,0,1,35.187,9.71H48.08a2.274,2.274,0,0,1,2.485,1.959v7.8ZM31.076,46.653V42.931H35.8Zm6.031-5.187H30.147a.847.847,0,0,0-.929.733v5.488H12.78V14.073H30.844v5.4c0,1.833,1.831,3.333,4.132,3.421l-.892,2.968a.671.671,0,0,0,.378.775,1.136,1.136,0,0,0,.525.129,1.086,1.086,0,0,0,.525-.129l1.6-.867V41.467Z" transform="translate(0 0.375)" stroke="#000" stroke-width="0.3"/><path d="M64.634,14.119a3.025,3.025,0,0,0-3.02,3.02.739.739,0,0,0,1.479,0,1.541,1.541,0,1,1,1.541,1.541.738.738,0,0,0-.739.739v1.3a.739.739,0,1,0,1.479,0v-.655a3.02,3.02,0,0,0-.739-5.948Z" transform="translate(-22.544 -3.388)" stroke="#000" stroke-width="0.3"/><path d="M67.751,33.6a.738.738,0,0,0-.739.739v.149a.739.739,0,1,0,1.479,0v-.149A.738.738,0,0,0,67.751,33.6Z" transform="translate(-26.022 -14.641)" stroke="#000" stroke-width="0.3"/></g></g></svg>