<svg xmlns="http://www.w3.org/2000/svg" xmlns:xlink="http://www.w3.org/1999/xlink" width="42" height="42" viewBox="0 0 42 42"><defs><clipPath id="b"><rect width="42" height="42"/></clipPath></defs><g id="a" clip-path="url(#b)"><g transform="translate(-3.438 -3.504)"><g transform="translate(3.438 3.504)"><path d="M23.084,69.273a1.265,1.265,0,0,0-1.793,0l-.948.948-.948-.948A1.268,1.268,0,0,0,17.6,71.067l.948.948-.948.948a1.269,1.269,0,0,0,1.8,1.793l.948-.948.948.948a1.234,1.234,0,0,0,.891.373,1.268,1.268,0,0,0,.9-2.165l-.948-.948.948-.948a1.271,1.271,0,0,0,0-1.8Z" transform="translate(-11.009 -39.406)"/><path d="M18.05,55.117H7.491a4.058,4.058,0,0,0-4.054,4.054V69.729a4.058,4.058,0,0,0,4.054,4.054H18.05A4.058,4.058,0,0,0,22.1,69.729V59.171A4.06,4.06,0,0,0,18.05,55.117Zm1.515,14.61a1.517,1.517,0,0,1-1.515,1.515H7.491a1.517,1.517,0,0,1-1.515-1.515V59.169a1.517,1.517,0,0,1,1.515-1.515H18.05a1.517,1.517,0,0,1,1.515,1.515Z" transform="translate(-3.438 -31.839)"/><path d="M18.05,3.5H7.491A4.058,4.058,0,0,0,3.438,7.556V18.114a4.057,4.057,0,0,0,4.054,4.052H18.05A4.058,4.058,0,0,0,22.1,18.114l0-10.558A4.057,4.057,0,0,0,18.05,3.5Zm1.515,14.61a1.519,1.519,0,0,1-1.515,1.517l-10.558,0a1.518,1.518,0,0,1-1.515-1.517V7.556A1.519,1.519,0,0,1,7.491,6.039H18.05a1.518,1.518,0,0,1,1.515,1.517Z" transform="translate(-3.438 -3.504)"/><path d="M21.194,18.147l-2.937,2.364-.756-.96a1.267,1.267,0,1,0-1.994,1.564l1.547,1.973a1.261,1.261,0,0,0,.853.477,1.3,1.3,0,0,0,.144.009,1.26,1.26,0,0,0,.795-.28l3.936-3.171a1.268,1.268,0,0,0-1.587-1.977Z" transform="translate(-9.915 -11.389)"/><path d="M53.925,16.85H71.19a1.268,1.268,0,1,0,0-2.537H53.925a1.268,1.268,0,1,0,0,2.537Z" transform="translate(-30.458 -9.438)"/><path d="M53.925,30.982h7.954a1.268,1.268,0,1,0,0-2.537H53.925a1.268,1.268,0,1,0,0,2.537Z" transform="translate(-30.458 -17.196)"/><path d="M71.19,65.93H53.925a1.268,1.268,0,1,0,0,2.537H71.19a1.268,1.268,0,1,0,0-2.537Z" transform="translate(-30.458 -37.775)"/><path d="M61.878,80.059H53.924a1.268,1.268,0,1,0,0,2.537h7.954a1.268,1.268,0,1,0,0-2.537Z" transform="translate(-30.458 -45.532)"/></g></g></g></svg>