<svg xmlns="http://www.w3.org/2000/svg" width="645.548" height="517.437" viewBox="0 0 645.548 517.437"><g transform="translate(-38.111 -55.956)"><g transform="translate(38.111 55.956)"><g transform="translate(430.153 131.155)"><path d="M427.057,301.088s28.882-26.305,25-39.432,2.762-27.667-6.2-43.5-13.04-13.149-34.109-16.962-24.316-15.288-42.983-.932c-18.3,14.076-14.344,22.869,8.783,24.936,13.843,1.237,30.884-2.76,32.474,22.4A119.675,119.675,0,0,0,427.057,301.088Z" transform="translate(-347.061 -193.236)" fill="#7fc991"/><path d="M411.3,319.726c-6.991-5.126,1.809-25.181,15.266-34.792,9.3-6.639,17.141.808,30.517-7.67,9.447-5.987,9.718-12.354,16.722-13.041,8.275-.811,10.425,7.827,22.963,11.924,12.07,3.942,15.881-2.166,23.159,1.874,13.349,7.409,19.764,38.633,10.1,46.816-5.91,5.007-16.8-13.47-31.442-9.31-7.3,2.072-7.732,7.326-14.89,8.272-10.027,1.323-13.911-8.358-23.939-11.286C440.377,306.852,419.111,325.458,411.3,319.726Z" transform="translate(-319.273 -155.027)" fill="#7fc991"/><path d="M367.063,529.838c14.317-58.6,43.321-154.556,70.1-193.742,43.33-63.394,91.543-58.527,91.543-58.527" transform="translate(-367.063 -147.855)" fill="none" stroke="#40635b" stroke-miterlimit="10" stroke-width="1"/><path d="M379.348,408.017c46.506-155.878,56.463-178.681,43.464-191.563" transform="translate(-335.158 -180.729)" fill="none" stroke="#40635b" stroke-miterlimit="10" stroke-width="1"/><path d="M383.418,369.181s1.3-32.6,11.92-36.821,16.735-16.081,31.75-18.366,15.356,1.779,28.724,13.64,22.575,8.076,22.78,27.733c.2,19.272-7.613,21.207-20.9,7.093-7.95-8.447-14.116-21.692-31.449-9.761A98.751,98.751,0,0,1,383.418,369.181Z" transform="translate(-332.965 -128.514)" fill="#7fc991"/><path d="M369.78,419.18c8.981-33.566,25.6-77.755,53.3-94.113" transform="translate(-365.599 -37.197)" fill="none" stroke="#40635b" stroke-miterlimit="10" stroke-width="1"/></g><ellipse cx="192.014" cy="3.887" rx="192.014" ry="3.887" transform="translate(101.235 454.987)" fill="#344c82" opacity="0.11"/><g transform="translate(110.208 177.308)"><circle cx="124.716" cy="124.716" r="124.716" transform="translate(14.984 14.984)" fill="#f3f8fa"/><circle cx="47.066" cy="47.066" r="47.066" transform="translate(120.167 39.692)" fill="#fff"/><path d="M139.179,363.7s-22.054,63.544-15.354,65.364,54.552-38.414,54.552-38.414Z" transform="translate(-109.993 -148.462)" fill="#4c649e"/><path d="M290.21,363.7s22.054,63.544,15.354,65.364-54.552-38.414-54.552-38.414Z" transform="translate(-40.799 -148.462)" fill="#4c649e"/><path d="M254.091,223.816a139.7,139.7,0,1,0,139.7,139.7A139.7,139.7,0,0,0,254.091,223.816Zm0,264.415A124.716,124.716,0,1,1,378.808,363.515,124.715,124.715,0,0,1,254.091,488.231Z" transform="translate(-114.392 -223.816)" fill="#4c649e"/><path d="M202.026,344.149H210.3l-4.139-73.472Z" transform="translate(-67.186 -198.573)" fill="#94c8e3" opacity="0.23" style="mix-blend-mode:multiply;isolation:isolate"/><path d="M201.23,343.054h8.279l-4.139-73.472Z" transform="translate(-67.615 -199.163)" fill="#94c8e3"/><path d="M202.19,341.865l6.264,5.413,60.468-76.307Z" transform="translate(-67.098 -198.415)" fill="#94c8e3" opacity="0.23" style="mix-blend-mode:multiply;isolation:isolate"/><path d="M201.393,340.771l6.264,5.412,60.468-76.307Z" transform="translate(-67.527 -199.004)" fill="#94c8e3"/><circle cx="10.348" cy="10.348" r="10.348" transform="translate(127.406 131.325)" fill="#94c8e3" opacity="0.23" style="mix-blend-mode:multiply;isolation:isolate"/><circle cx="10.348" cy="10.348" r="10.348" transform="translate(127.406 135.255)" fill="#94c8e3" opacity="0.23" style="mix-blend-mode:multiply;isolation:isolate"/><circle cx="10.348" cy="10.348" r="10.348" transform="translate(127.406 133.543)" fill="#94c8e3"/><path d="M200.993,321.6a5,5,0,0,0,5.953,3.327c3.09-.88,4.525-5.349,2.625-7.88a4.931,4.931,0,0,0-5.778-1.4A4.987,4.987,0,0,0,200.993,321.6Z" transform="translate(-67.853 -174.564)" fill="#94c8e3" opacity="0.23" style="mix-blend-mode:multiply;isolation:isolate"/><g transform="translate(21.472 21.472)"><line y2="11.921" transform="translate(118.228)" fill="none" stroke="#94c8e3" stroke-miterlimit="10" stroke-width="3"/><line x2="5.961" y2="10.324" transform="translate(59.114 15.84)" fill="none" stroke="#94c8e3" stroke-miterlimit="10" stroke-width="3"/><line x2="10.324" y2="5.961" transform="translate(15.84 59.114)" fill="none" stroke="#94c8e3" stroke-miterlimit="10" stroke-width="3"/><line x2="11.921" transform="translate(0 118.228)" fill="none" stroke="#94c8e3" stroke-miterlimit="10" stroke-width="3"/><line y1="5.961" x2="10.324" transform="translate(15.84 171.381)" fill="none" stroke="#94c8e3" stroke-miterlimit="10" stroke-width="3"/><line y1="10.324" x2="5.961" transform="translate(59.114 210.292)" fill="none" stroke="#94c8e3" stroke-miterlimit="10" stroke-width="3"/><line y1="11.921" transform="translate(118.228 224.535)" fill="none" stroke="#94c8e3" stroke-miterlimit="10" stroke-width="3"/><line x1="5.961" y1="10.324" transform="translate(171.381 210.292)" fill="none" stroke="#94c8e3" stroke-miterlimit="10" stroke-width="3"/><line x1="10.324" y1="5.961" transform="translate(210.292 171.381)" fill="none" stroke="#94c8e3" stroke-miterlimit="10" stroke-width="3"/><line x1="11.921" transform="translate(224.535 118.228)" fill="none" stroke="#94c8e3" stroke-miterlimit="10" stroke-width="3"/><line x1="10.324" y2="5.961" transform="translate(210.292 59.114)" fill="none" stroke="#94c8e3" stroke-miterlimit="10" stroke-width="3"/><line x1="5.961" y2="10.324" transform="translate(171.381 15.84)" fill="none" stroke="#94c8e3" stroke-miterlimit="10" stroke-width="3"/></g><path d="M248.846,240.027A124.715,124.715,0,0,1,373.515,361.379c.028-1.032.048-2.07.048-3.11a124.716,124.716,0,0,0-249.433,0c0,1.04.018,2.077.046,3.11A124.716,124.716,0,0,1,248.846,240.027Z" transform="translate(-109.146 -218.57)" fill="#94c8e3" opacity="0.23" style="mix-blend-mode:multiply;isolation:isolate"/><path d="M200.993,320.519a5,5,0,0,0,5.953,3.327c3.09-.879,4.525-5.347,2.625-7.878a4.934,4.934,0,0,0-5.778-1.4A4.987,4.987,0,0,0,200.993,320.519Z" transform="translate(-67.853 -175.147)" fill="#4c649e"/><path d="M223.078,228.012s58.722,9.2,87.655,64.417" transform="translate(-55.846 -221.556)" fill="none" stroke="#94c8e3" stroke-linecap="round" stroke-miterlimit="10" stroke-width="1"/><path d="M238.068,416.031s-59.416,1.6-97.876-47.465" transform="translate(-100.494 -145.843)" fill="none" stroke="#94c8e3" stroke-linecap="round" stroke-miterlimit="10" stroke-width="1"/></g><g transform="translate(0 243.982)"><ellipse cx="133.297" cy="20.321" rx="133.297" ry="20.321" transform="translate(0 213.665)" fill="#344c82" opacity="0.11"/><g transform="translate(0 0)"><path d="M60.855,297.284l-18.088,205.3H86.593Z" transform="translate(-42.767 -273.049)" fill="#abbac2"/><path d="M56.3,328.134s6.479,174.19,17.256,180.418,199.563,13.3,241.953-24.38c0,0-16.081-24.457-19.969-45.743s-12.883-126.045-12.883-126.045Z" transform="translate(-35.477 -264.915)" fill="#fff"/><g transform="translate(18.089 8.485)"><g transform="translate(42.069 63.044)"><g transform="translate(0 0)"><path d="M119.123,368.683l-34.684,4.7-2.575-36.731,36.075-2.529Z" transform="translate(-81.864 -324.733)" fill="none" stroke="#ccc" stroke-miterlimit="10" stroke-width="0.5"/><path d="M149.822,368.806l-36.076,2.529-2.751-39.242,36.252-.019Z" transform="translate(-66.172 -325.837)" fill="none" stroke="#ccc" stroke-miterlimit="10" stroke-width="0.5"/><path d="M177.594,364.314l-34.665,4.97-2.575-36.731,36.076-2.529Z" transform="translate(-50.357 -326.942)" fill="none" stroke="#ccc" stroke-miterlimit="10" stroke-width="0.5"/><path d="M122.876,404.524l-36.206.666L84.094,368.46l36.075-2.529Z" transform="translate(-80.663 -307.6)" fill="none" stroke="#ccc" stroke-miterlimit="10" stroke-width="0.5"/><path d="M151.99,401.266l-35.888,5.2-2.762-39.4,35.944-4.4Z" transform="translate(-64.91 -309.36)" fill="none" stroke="#ccc" stroke-miterlimit="10" stroke-width="0.5"/><path d="M181.422,401.228l-36.262-.138-2.575-36.732,36.075-2.529Z" transform="translate(-49.156 -309.809)" fill="none" stroke="#ccc" stroke-miterlimit="10" stroke-width="0.5"/><path d="M125.005,434.467,88.93,437l-2.662-37.964,36.162-1.3Z" transform="translate(-79.492 -290.467)" fill="none" stroke="#ccc" stroke-miterlimit="10" stroke-width="0.5"/><rect width="36.164" height="36.822" transform="translate(133.955 2.529) rotate(-4.011)" fill="none" stroke="#ccc" stroke-miterlimit="10" stroke-width="0.5"/><rect width="36.164" height="36.822" transform="matrix(0.998, -0.07, 0.07, 0.998, 137.386, 51.468)" fill="none" stroke="#ccc" stroke-miterlimit="10" stroke-width="0.5"/><path d="M211.573,428.363,175.5,430.892l-1.257-39.139L209,391.632Z" transform="translate(-32.104 -293.755)" fill="none" stroke="#ccc" stroke-miterlimit="10" stroke-width="0.5"/><path d="M154.22,432.416l-38.083-1.009-.568-33.193,36.075-2.529Z" transform="translate(-63.708 -291.572)" fill="none" stroke="#ccc" stroke-miterlimit="10" stroke-width="0.5"/></g><path d="M183.465,430.8l-36.075,2.529L144.814,396.6l35.989-3.762Z" transform="translate(-47.955 -293.108)" fill="none" stroke="#ccc" stroke-miterlimit="10" stroke-width="0.5"/></g><path d="M280.879,287.048,54.523,302.8l2.733,38.984,226.357-15.75ZM96.827,325.906a6.471,6.471,0,1,1,6-6.907A6.469,6.469,0,0,1,96.827,325.906Zm38.544-2.7a6.47,6.47,0,1,1,6-6.907A6.47,6.47,0,0,1,135.371,323.2Zm38.544-2.7a6.471,6.471,0,1,1,6-6.909A6.47,6.47,0,0,1,173.915,320.5Zm38.544-2.7a6.471,6.471,0,1,1,6-6.907A6.469,6.469,0,0,1,212.458,317.8ZM251,315.1a6.471,6.471,0,1,1,6-6.907A6.47,6.47,0,0,1,251,315.1Z" transform="translate(-54.523 -287.048)" fill="#fcc858"/></g><g transform="translate(116.173 89.087)"><line x1="14.441" y2="16.618" transform="translate(1.089)" fill="none" stroke="#4d4d4d" stroke-miterlimit="10" stroke-width="2"/><line x1="16.618" y1="14.44" transform="translate(0 1.089)" fill="none" stroke="#4d4d4d" stroke-miterlimit="10" stroke-width="2"/></g><g transform="translate(168.122 183.192)"><line x1="14.441" y2="16.618" transform="translate(1.089)" fill="none" stroke="#4d4d4d" stroke-miterlimit="10" stroke-width="2"/><line x1="16.618" y1="14.44" transform="translate(0 1.089)" fill="none" stroke="#4d4d4d" stroke-miterlimit="10" stroke-width="2"/></g><g transform="translate(74.606 141.18)"><line x1="14.44" y2="16.618" transform="translate(1.089)" fill="none" stroke="#94c8e3" stroke-miterlimit="10" stroke-width="2"/><line x1="16.618" y1="14.44" transform="translate(0 1.089)" fill="none" stroke="#94c8e3" stroke-miterlimit="10" stroke-width="2"/></g><path d="M201.525,439.473s16.7-9.584,18.51-25.029" transform="translate(42.752 -209.938)" fill="none" stroke="#ccc" stroke-miterlimit="10" stroke-width="1"/><path d="M60.472,326.209s4.715,145.5,21.215,164.356" transform="translate(-33.229 -257.468)" fill="none" stroke="#ccc" stroke-miterlimit="10" stroke-width="1"/><path d="M57.256,336.268l8.779-.615-2.358-35.544-9.154-2.825Z" transform="translate(-36.434 -273.049)" fill="#b58c40"/><path d="M67.366,300.718s11.959-21.235,25.739-8.087c12.106,11.549,0,26.126-9.46,28.965" transform="translate(-29.516 -277.869)" fill="none" stroke="#4d4d4d" stroke-miterlimit="10" stroke-width="2"/><path d="M92.551,298.451s11.96-21.235,25.74-8.089c12.1,11.549,0,26.128-9.461,28.965" transform="translate(-15.949 -279.091)" fill="none" stroke="#4d4d4d" stroke-miterlimit="10" stroke-width="2"/><path d="M117.919,296.942s10.978-19.495,23.628-7.426c11.112,10.6,0,23.985-8.684,26.59" transform="translate(-2.284 -279.357)" fill="none" stroke="#4d4d4d" stroke-miterlimit="10" stroke-width="2"/><path d="M142.779,294.715s10.925-19.4,23.514-7.389c11.057,10.551,0,23.868-8.643,26.46" transform="translate(11.107 -280.526)" fill="none" stroke="#4d4d4d" stroke-miterlimit="10" stroke-width="2"/><path d="M169.107,292.617s10.7-19.009,23.04-7.239c10.835,10.338,0,23.386-8.469,25.927" transform="translate(25.289 -281.533)" fill="none" stroke="#4d4d4d" stroke-miterlimit="10" stroke-width="2"/><path d="M119.694,379.612c-.648,8.518,4.65,15.665,11.048,16.916,8.738,1.708,18.1-7.86,16.57-16.744-1.219-7.056-9.3-13.587-16.4-11.218-6.284,2.094-10.369,10.68-6.9,18.813" transform="translate(-1.357 -234.918)" fill="none" stroke="#fcc858" stroke-miterlimit="10" stroke-width="1"/><path d="M192.758,331.91c-8.421-1.434-16.027,3.18-17.864,9.435-2.51,8.542,6.15,18.751,15.137,18.047,7.139-.56,14.388-8,12.688-15.288-1.5-6.452-9.674-11.314-18.095-8.616" transform="translate(28.17 -254.539)" fill="none" stroke="#fcc858" stroke-miterlimit="10" stroke-width="1"/><path d="M125.075,379.589l4.7,4.436s6.506-9.3,8.564-10.737" transform="translate(1.571 -232.108)" fill="none" stroke="#fcc858" stroke-miterlimit="10" stroke-width="1"/></g></g><path d="M326.484,160.683q6.047,3.24,11.834,6.885a152.314,152.314,0,0,0,24.167-12.286A220.252,220.252,0,0,0,303.67,125.09C311.914,138.48,320.6,152.258,326.484,160.683Z" transform="translate(54.23 -98.79)" fill="#4c649e" opacity="0.23" style="mix-blend-mode:multiply;isolation:isolate"/><g transform="translate(280.031 0)"><g transform="translate(0 16.122)"><path d="M302.661,227.766c.776.755,1.044.645,1.547,1.394,1.614,2.4,6.895,4.292,9.9,5.423,5.191,4.152,13.479,12.477,15.324,4.331,1.635-7.212,2.983-10.815,1.695-15.048-.078-.426-3.156-2.376-3.413-2.854a129.97,129.97,0,0,0-7.826-13.46c-4.275-6-9.886-2.626-8.98-.841.284.555,10.282,4.882,8.377,3.684-2.283-3.451-2.129-2.862-4.649-4.732-5.121-3.8-10.723.3-6.383,3.068.668.426,3.319.371,4.534.722a.832.832,0,0,1,.48.278c.094.146-2.1-1.376-3.294-2.123-5.383-3.365-9.011,1.845-7.481,3.891.564.754,4.592-.443,5.248.2.576.57-4.266-2.975-5.809-1.852-3.929,2.862-2.7,10.274-1.584,12.111l3.993-3.751c-.188-.292,1.561,2.519,2.21,3.951.687,1.987.595,1.757-.275,1.037" transform="translate(-299.246 -204.126)" fill="#edbda3"/><path d="M300.882,206.766a6.91,6.91,0,0,1,5.726,2.97l2.075,3.141" transform="translate(-297.467 -201.258)" fill="none" stroke="#cc8972" stroke-linecap="round" stroke-miterlimit="10" stroke-width="0.5"/><path d="M302.915,205.274s3.258.975,4.568,1.574,3.555,4.264,3.555,4.264" transform="translate(-295.256 -202.878)" fill="none" stroke="#cc8972" stroke-linecap="round" stroke-miterlimit="10" stroke-width="0.5"/><path d="M305.3,204.221s3.718,2.048,4.353,2.2,2.28,3.332,2.28,3.332" transform="translate(-292.667 -204.023)" fill="none" stroke="#cc8972" stroke-linecap="round" stroke-miterlimit="10" stroke-width="0.5"/></g><path d="M502.072,443.669c0,2.912-36.208,5.275-80.873,5.275s-80.873-2.363-80.873-5.275S376.534,438.4,421.2,438.4,502.072,440.757,502.072,443.669Z" transform="translate(-254.574 66.748)" fill="#344c82" opacity="0.11"/><path d="M408.88,344.156c-.414,3.718-1.614,9.08-2.482,13.353-1.123,5.54-3.943,5.379-3.738,3.112.075-.833,1.718-13.845,1.912-14.643.171-.7-.66-.609-.965,2.188-.008.01-.785,3.323-1.346,6.279-1.367,7.191-3.949,5.6-3.96,3.686,0-.706.944-12.193.959-12.888.006-.309-.295-5.252-.47-6.64-.52-2.336-.937-2.649-1.263-1.428-.7,5.722-1.931,9.358-3.59,8.3-1.361-.873-.357-6.905-.188-11.078a25.019,25.019,0,0,1,3.839-10.387c2-5.569,5.536-14.1,10.738-8.784a38.023,38.023,0,0,1,8.694,15.159,9.666,9.666,0,0,1,.317,1.926,83.851,83.851,0,0,1-.25,11.9c-.442,6.544-2.7,8.2-2.845,6.425-.046-.553.585-10.848-.3-9.049-.123,3.683-1.44,8.1-1.935,12.366-.655,5.638-3.355,5.187-3.342,2.91.006-.839,1-11.138,1.023-11.965,0-.154.048-1.193-.413-1.254C409.063,343.61,408.913,343.894,408.88,344.156Z" transform="translate(-197.042 -69.019)" fill="#edbda3"/><path d="M320.351,213.572l53.941,45.071-6.585-3.576,51.006,12.2-5.648,40.508-52.076-24.636-4.208-1.007-2.378-2.569-47.749-51.586Z" transform="translate(-291.191 -177.733)" fill="#fcc858"/><path d="M416.424,305.3s18.006,74.488,22.258,137.754c0,0-16.344,13.706-31.681,15.888,0,0-26.537-58.981-46.919-115.517Z" transform="translate(-233.092 -77.981)" fill="#233561"/><path d="M419.333,323.366s-16.778,73.862-43.936,136.69c0,0-18.641,3.006-33.355-1.892,0,0,5.554-91.006,15.067-154.72Z" transform="translate(-252.709 -80.003)" fill="#233561"/><path d="M369.327,255.584c4.171-2.73,2.524-12.274,2.157-17.4l24.73-18.977c.1.647.111,20.469.213,21.131,1.417,9.141,17.3,19.158,18.908,20.06,9.675,5.417-4.361,54.618-53.409,27.617-.211-.108-.416-.23-.616-.357C351.479,282.1,360.919,261.094,369.327,255.584Z" transform="translate(-236.316 -171.602)" fill="#edbda3"/><path d="M347.4,287.37c.221-4.21,1.839-29.877,17.054-40.486,5.634-3.927,16.1-8.341,16.1-8.339.993,2.975,1.87,8.339,10.855,8.483,19,.3,24.011-12.149,24.011-12.149,12.435,9.778,16.282,8.492,19.983,11.717,11.754,10.245,19.948,15.063,4.793,53.981l-9.575,45.481,4.789,40.692c-42.7,20.273-69.95,19.432-84.9.455C350.507,387.205,345,332.849,347.4,287.37Z" transform="translate(-247.542 -154.563)" fill="#fcc858"/><path d="M385.574,241.67l-14.319,15.666-8.97-15.424Z" transform="translate(-230.695 -147.178)" fill="#fff"/><path d="M376.575,243.691s-5.133,8.26-12.7-1.021l7.029-2.033Z" transform="translate(-228.967 -148.302)" fill="#233561"/><g transform="translate(174.925 90.294)"><path d="M403.709,319.616c.065-.315.144-.71.23-1.142Z" transform="translate(-360.576 -153.953)" fill="#fcc858"/><path d="M403.648,319.341c-.007.031-.007.035,0,0Z" transform="translate(-360.648 -153.01)" fill="#fcc858"/><path d="M403.645,319.49l.059-.286Z" transform="translate(-360.645 -153.159)" fill="#fcc858"/><path d="M403.819,318.838l.14-.7Z" transform="translate(-360.456 -154.317)" fill="#fcc858"/><path d="M403.673,319.4l.075-.382Z" transform="translate(-360.615 -153.358)" fill="#fcc858"/><path d="M403.886,318.374c.029-.15.06-.3.09-.451C403.946,318.076,403.913,318.234,403.886,318.374Z" transform="translate(-360.383 -154.552)" fill="#fcc858"/><path d="M436.952,326.039c-5.333-13.424-13.558-43.527-24.078-66.553-9.715-21.263-37.753-35.253-27.675,11.028,3.145,14.449,14.516,44.475,24.406,62.79l-1.737,67.781c4.7.384,19.236-.382,19.236-.382C429.5,388.733,436.952,326.039,436.952,326.039Z" transform="translate(-383.046 -239.659)" fill="#fcc858"/><path d="M404.173,316.945l-.092.453Z" transform="translate(-360.171 -155.615)" fill="#fcc858"/><path d="M403.929,318.588c.077-.386.161-.8.255-1.276C404.108,317.688,404.021,318.13,403.929,318.588Z" transform="translate(-360.336 -155.216)" fill="#fcc858"/><path d="M404.181,316.808l-.056.286Z" transform="translate(-360.124 -155.764)" fill="#fcc858"/></g><path d="M394.54,318.275s14.873-1.1,20.87-2.4c0,0,1.3,6.058-1.042,8.235s-16.839,3.073-18.624,1.158C394.129,323.535,394.54,318.275,394.54,318.275Z" transform="translate(-195.671 -66.486)" fill="#f2f2f2"/><path d="M395.964,319.918a.93.93,0,1,0-.495-1.219A.93.93,0,0,0,395.964,319.918Z" transform="translate(-194.691 -64.033)" fill="#fcc858"/><path d="M327.609,217.224s-12.052,12.951-16.217,18.916c0,0-6.02-4.217-5.736-8s12.17-16.253,15.267-16.028C323.724,212.316,327.609,217.224,327.609,217.224Z" transform="translate(-292.287 -179.324)" fill="#f2f2f2"/><path d="M308.248,219.834a1.1,1.1,0,1,0,1.413.66A1.1,1.1,0,0,0,308.248,219.834Z" transform="translate(-290.247 -170.996)" fill="#fcc858"/><path d="M383.611,364l-10.351-20.651-15.527-8.195" transform="translate(-235.647 -45.523)" fill="none" stroke="#0d1017" stroke-linecap="round" stroke-miterlimit="10" stroke-width="1"/><g transform="translate(173.511 351.133)"><path d="M439.893,472.163l-57.525-78.5,22.513-29.051s20.1,16.6,27.326,33.219C446.7,431.14,455.309,449.2,460.369,459,454.487,464.176,447.122,469.618,439.893,472.163Z" transform="translate(-382.368 -364.616)" fill="#233561"/><path d="M419.875,436.57l-9.949-13.576c7.229-2.545,14.593-7.987,20.475-13.161,5.741,11.113,6.91,11.585,6.91,11.585S433.57,431.98,419.875,436.57Z" transform="translate(-352.401 -315.447)" fill="#edbda3"/></g><g transform="translate(77.546 369.121)"><path d="M337.324,482.777l10.692-105.344,33.394-4.2s1.72,43.377-3.959,60.586c-8.252,25-12.995,41.206-15.708,51.712C354.312,485.41,344.954,484.786,337.324,482.777Z" transform="translate(-335.385 -373.233)" fill="#233561"/><path d="M359.521,443.317a22.287,22.287,0,0,1-23.126,1.495l1.939-19.1c7.629,2.008,16.987,2.632,24.419,2.753C359.417,442.69,359.521,443.317,359.521,443.317Z" transform="translate(-336.395 -316.167)" fill="#edbda3"/></g><g transform="translate(116.853 4.116)"><path d="M370.228,204.946s-9.462,5.665-9.189,16.126c.069,2.651-3.193,16.05-3.193,16.05-1.643,16.593,8.546,27.642,12.48,27.784,9.479.344,17.207-4.379,21.9-8.853,8.619-8.218,13.792-36.171,7.047-45.358C390.206,198.35,374.824,199.415,370.228,204.946Z" transform="translate(-352.57 -195.521)" fill="#edbda3"/><path d="M357.8,222.912s2.555,1.522,7.907-.171c3.4-1.077,8.467-4.653,9.554-2.39,4.939,10.281,4.749,22.8-4.1,24.327S356.562,226.64,357.8,222.912Z" transform="translate(-352.61 -175.278)" fill="#233561"/><path d="M393.479,240.045c-.286-2.121-1.478-14.046-.749-16.47a4.254,4.254,0,0,0-1.914-.438,8.185,8.185,0,0,1-7.6-7.874h0a85.646,85.646,0,0,1-16.228-1.428c-10.541-2.073-7.778-14.055-7.569-14.107,2.8-.71,25.379-4.265,38.248,4.125,12.633,8.235,6.54,28.387,5.41,31.76a.737.737,0,0,1-.687.5L394.26,240.7A.76.76,0,0,1,393.479,240.045Z" transform="translate(-351.191 -198.375)" fill="#233561"/><path d="M380.665,203.476s10,5.582,2.114,24.916C382.779,228.392,376.282,222.012,380.665,203.476Z" transform="translate(-329.214 -192.827)" fill="#233561"/><path d="M365.254,211.459s-3.968,7.984-9.648,13.193c-1.908,1.747,3.849,7.467,6.367,7.719C367.559,232.93,365.254,211.459,365.254,211.459Z" transform="translate(-355.226 -184.147)" fill="#edbda3"/><path d="M387.339,226.371c-2.584,4.524-7.277,6.5-10.477,4.407s-3.7-7.45-1.113-11.974,7.279-6.5,10.479-4.4S389.927,221.848,387.339,226.371Z" transform="translate(-334.708 -181.856)" fill="#edbda3"/><path d="M384.556,225s-3.727,12.464-19.5,13.074" transform="translate(-344.537 -169.423)" fill="none" stroke="#cc8972" stroke-linecap="round" stroke-miterlimit="10" stroke-width="0.5"/><path d="M368.507,221.923s-3.092,4.787-8.435,3.822" transform="translate(-349.955 -172.768)" fill="none" stroke="#edbda3" stroke-linecap="round" stroke-miterlimit="10" stroke-width="0.5"/><path d="M361.614,215.481c-.054.891.386,1.643.981,1.678s1.119-.66,1.171-1.551-.387-1.643-.981-1.678S361.667,214.589,361.614,215.481Z" transform="translate(-348.283 -181.461)" fill="#233561"/><path d="M382.013,215.279s-4.348-1.089-5.429,3.376c0,0,3.3,1.288,1.756,2.826s-1.894,1.566-1.894,1.566a4.027,4.027,0,0,0,1.192,3.225" transform="translate(-332.16 -180.12)" fill="none" stroke="#cc8972" stroke-linecap="round" stroke-linejoin="round" stroke-width="0.5"/><path d="M367.523,214.933c.488-.62.232-2.6-2.382-3.81a3.819,3.819,0,0,0-2.97-.165,1.1,1.1,0,0,0-.418,1.278c.313.812,1.532.518,3.079,1.576,1.111.758.67.946,1.775,1.294A.848.848,0,0,0,367.523,214.933Z" transform="translate(-348.197 -184.93)" fill="#233561"/></g><g transform="translate(141.936 73.24)"><path d="M387.141,231.489s-8.788,14.95-19.9,19.1a134.007,134.007,0,0,1,12.3,7.1s15.207-14.439,16.185-17.186A12.031,12.031,0,0,0,387.141,231.489Z" transform="translate(-367.242 -231.489)" fill="#fff"/></g><path d="M367.463,235l-1.558,5.457,8.262,6.3s-6.648,2.946-9.69,4.805a16.956,16.956,0,0,1-3.6-10.562A9.643,9.643,0,0,1,367.463,235Z" transform="translate(-232.231 -154.427)" fill="#fff"/><path d="M393.89,209.42s-5.26-8.314-31.608-13.017C362.282,196.4,357.911,208.873,393.89,209.42Z" transform="translate(-230.881 -196.403)" fill="#233561"/><path d="M389.845,208.193s-4.966-6.78-20.77-11.289C369.076,196.9,367.9,205.627,389.845,208.193Z" transform="translate(-223.324 -195.858)" fill="#233561"/><path d="M377.934,207.119s-.023-3.653,5.1-7.6C383.038,199.521,385.77,204.013,377.934,207.119Z" transform="translate(-213.679 -193.012)" fill="#233561"/><path d="M377.891,203.859s2.607-2.557,9.01-1.616C386.9,202.243,385.571,207.331,377.891,203.859Z" transform="translate(-213.726 -190.278)" fill="#233561"/><path d="M366.289,220.514s4.427,5.137,4.129,9.765C370.418,230.279,365.692,225.353,366.289,220.514Z" transform="translate(-226.398 -170.184)" fill="#233561"/><path d="M358.839,223.988s5.924-6.486,10.4-3.881C369.239,220.107,363.461,227.276,358.839,223.988Z" transform="translate(-234.443 -171.297)" fill="#233561"/><path d="M367.192,222.058s4.066,6.219,2.012,10.562C369.2,232.62,364.661,226.515,367.192,222.058Z" transform="translate(-226.194 -168.505)" fill="#233561"/><path d="M370.084,242.939l6.294,5.306-7.049,7.712-5.271-9.064Z" transform="translate(-228.769 -145.799)" fill="#233561"/><path d="M348.617,438.014l.016-.011c4.069-1.893,2.564-8.1,7.53-4.6,3.185,2.248,4.866,6.288,8.179,6.732A22.43,22.43,0,0,0,376.62,436.1h0l.808-.052s3.559,6.269,2.539,18.561a1.41,1.41,0,0,1-1.313,1.28l-12.856.733c-12.186-4.14-9.366,3.552-43.8-.664a1.39,1.39,0,0,1-1.221-1.143C320.238,451.3,320.66,439.82,348.617,438.014Z" transform="translate(-275.948 60.175)" fill="#233561"/><path d="M419.619,433.405l.006-.019c2.063-3.987-2.924-7.978,3.143-8.243,3.9-.171,7.694,2,10.588.324a22.434,22.434,0,0,0,7.245-10.7h0l.609-.536s6.651,2.784,13.359,13.134a1.409,1.409,0,0,1-.257,1.814l-9.725,8.443c-12.174,4.177-5.235,8.538-35.058,26.258a1.392,1.392,0,0,1-1.664-.157C405.289,461.271,398.6,451.929,419.619,433.405Z" transform="translate(-184.477 40.465)" fill="#233561"/><g transform="translate(101.449 107.085)"><line x1="7.431" y1="23.474" transform="translate(80.467 27.079)" fill="none" stroke="#b58c40" stroke-linecap="round" stroke-miterlimit="10" stroke-width="0.75"/><path d="M351.954,247.7s-2.791,4.544-4.108,13.3" transform="translate(-347.846 -247.703)" fill="none" stroke="#b58c40" stroke-linecap="round" stroke-miterlimit="10" stroke-width="0.75"/><path d="M394.231,256.025s-19.73,58.981-34.159,59.481" transform="translate(-334.551 -238.653)" fill="none" stroke="#b58c40" stroke-linecap="round" stroke-miterlimit="10" stroke-width="0.75"/><path d="M352.664,268.988s5.567,62.331,20.083,71.925" transform="translate(-342.607 -224.557)" fill="none" stroke="#b58c40" stroke-linecap="round" stroke-miterlimit="10" stroke-width="0.75"/><path d="M391.6,287.64c-2.505,0-19.311,2.5-12.913,4.008" transform="translate(-315.879 -204.274)" fill="none" stroke="#b58c40" stroke-linecap="round" stroke-miterlimit="10" stroke-width="0.75"/><path d="M386.63,288.6s-9.588,6.2-5.21,7.327" transform="translate(-312.582 -203.23)" fill="none" stroke="#b58c40" stroke-linecap="round" stroke-miterlimit="10" stroke-width="0.75"/></g></g></g></g></svg>