<svg xmlns="http://www.w3.org/2000/svg" xmlns:xlink="http://www.w3.org/1999/xlink" width="42" height="42" viewBox="0 0 42 42"><defs><clipPath id="b"><rect width="42" height="42"/></clipPath></defs><g id="a" clip-path="url(#b)"><g transform="translate(-10.738 -3.094)"><g transform="translate(11.091 3.36)"><path d="M26.507,3.361H54.649A6.937,6.937,0,0,1,59.3,5.1,5.644,5.644,0,0,1,61.226,9.3V43.857a1.028,1.028,0,0,1-1.076.971,1.136,1.136,0,0,1-.75-.274l-4.143-3.177-4.2,3.219a1.165,1.165,0,0,1-1.4-.01l-4.185-3.209-4.2,3.219a1.165,1.165,0,0,1-1.4-.01l-4.185-3.209-4.2,3.219a1.165,1.165,0,0,1-1.4-.01L25.9,41.378,21.7,44.6a1.157,1.157,0,0,1-1.514-.114.916.916,0,0,1-.255-.626h0V9.295A5.649,5.649,0,0,1,21.861,5.1,6.93,6.93,0,0,1,26.507,3.36Zm6.85,11.345a.905.905,0,0,1,0-1.374,1.16,1.16,0,0,1,1.523,0l3.971,3.583,7.426-6.7a1.16,1.16,0,0,1,1.523,0,.905.905,0,0,1,0,1.374l-8.187,7.387a1.16,1.16,0,0,1-1.523,0ZM27.211,25.068a.976.976,0,1,1,0-1.943H53.945a.976.976,0,1,1,0,1.943Zm0,7.931a.977.977,0,1,1,0-1.944H53.945a.977.977,0,1,1,0,1.944ZM54.649,5.305H26.507a4.661,4.661,0,0,0-3.124,1.173,3.8,3.8,0,0,0-1.3,2.819V41.76l3.108-2.383a1.163,1.163,0,0,1,1.4-.01l4.2,3.219,4.185-3.209a1.163,1.163,0,0,1,1.4-.01l4.2,3.219,4.185-3.209a1.163,1.163,0,0,1,1.4-.01l4.2,3.219,4.185-3.209a1.163,1.163,0,0,1,1.4-.01l3.122,2.393V9.3a3.8,3.8,0,0,0-1.3-2.819,4.661,4.661,0,0,0-3.124-1.173Z" transform="translate(-19.93 -3.36)" stroke="#000" stroke-width="0.4"/></g></g></g></svg>