<svg xmlns="http://www.w3.org/2000/svg" width="41" height="41" viewBox="0 0 41 41"><circle cx="20.5" cy="20.5" r="20.5" fill="#fff"/><g transform="translate(10 6)"><path d="M56.58,55.473a.617.617,0,0,1-.437-1.055.537.537,0,0,1,.093-.078.769.769,0,0,1,.108-.056.715.715,0,0,1,.115-.037.619.619,0,1,1,.121,1.226Z" transform="translate(-43.766 -38.389)" fill="#1b428a"/><path d="M45.893,41.323a4.714,4.714,0,0,1-4.709-4.708V30.9a2.883,2.883,0,0,1,5.766,0v3.311a.619.619,0,1,1-1.237,0V30.9a1.645,1.645,0,0,0-3.29,0v5.717a3.471,3.471,0,1,0,6.942,0V32.686a.619.619,0,0,1,1.237,0v3.928a4.711,4.711,0,0,1-4.707,4.709Z" transform="translate(-33.516 -20.201)" fill="#1b428a"/><path d="M37.421,35.926a8.406,8.406,0,0,1-8.4-8.4V21.47A6.572,6.572,0,0,1,41.9,19.619a.619.619,0,0,1-1.188.348,5.334,5.334,0,0,0-10.451,1.5v6.061a7.159,7.159,0,0,0,14.171,1.443.619.619,0,1,1,1.213.249,8.42,8.42,0,0,1-8.225,6.7Z" transform="translate(-25.08 -11.101)" fill="#1b428a"/><path d="M36.267,17.668a.619.619,0,0,1-.619-.619v-4.18a9.13,9.13,0,1,0-18.26,0v1.24a.619.619,0,0,1-1.237,0v-1.24a10.368,10.368,0,1,1,20.736,0v4.18a.619.619,0,0,1-.62.619Z" transform="translate(-16.15 -2.5)" fill="#1b428a"/><path d="M29.182,65.716A13.049,13.049,0,0,1,16.148,52.682V52.3a.619.619,0,1,1,1.237,0v.38a11.81,11.81,0,0,0,11.8,11.8.619.619,0,0,1,0,1.238Z" transform="translate(-16.148 -36.619)" fill="#1b428a"/></g></svg>