<svg xmlns="http://www.w3.org/2000/svg" width="44" height="44" viewBox="0 0 44 44"><g transform="translate(-31.333 -334)"><g transform="translate(31.333 334)"><circle cx="22" cy="22" r="22" fill="#fff"/><g transform="translate(7.667 7)"><path d="M73.951,31.141a16.3,16.3,0,0,1,9.316,1.465,4.083,4.083,0,0,1,1.348.841.86.86,0,0,1-.187,1.085c-.351.31-.8.059-1.159-.1A15.284,15.284,0,0,0,75.7,32.588a13.823,13.823,0,0,0-6.056,1.726,3.324,3.324,0,0,1-.931.384.818.818,0,0,1-.375-1.484,14.491,14.491,0,0,1,5.613-2.073Z" transform="translate(-61.955 -30.986)" fill="#1d1c1b"/><path d="M106.326,50.855a2.975,2.975,0,0,1,1.069-.09,13.83,13.83,0,0,1,8.209,2.663,14.966,14.966,0,0,1,3.17,3.254.811.811,0,0,1-.538,1.256c-.518.1-.8-.4-1.071-.74a12.431,12.431,0,0,0-10.343-4.808.823.823,0,0,1-.5-1.535Z" transform="translate(-92.917 -47.13)" fill="#1d1c1b"/><path d="M55.461,53.224a.808.808,0,0,1,1.128.97c-.18.578-.876.571-1.346.766a11.791,11.791,0,0,0-6.029,4.84c-.252.356-.514.793-.99.859a.865.865,0,0,1-.724-1.291,17.493,17.493,0,0,1,3.651-3.89,15.868,15.868,0,0,1,4.31-2.254Z" transform="translate(-45.133 -49.064)" fill="#1d1c1b"/><path d="M54.979,53.593a.807.807,0,1,1,.121,1.394.839.839,0,0,1-.121-1.394Z" transform="translate(-51.088 -49.31)" fill="#1d1c1b"/><path d="M63.593,69.195a10.861,10.861,0,0,1,8.3,2.1,10.012,10.012,0,0,1,3.912,7.487,8.207,8.207,0,0,1-.777,4.36,3.14,3.14,0,0,1-3.082,1.515.83.83,0,0,1-.228-1.517c.487-.182,1.056-.062,1.511-.351a2.849,2.849,0,0,0,1.179-2.373,9.334,9.334,0,0,0-1.822-6.328,8.568,8.568,0,0,0-4.609-2.957,9.994,9.994,0,0,0-7.59.85,9.643,9.643,0,0,0-4.563,7.145,13.087,13.087,0,0,0,.479,5.329.914.914,0,0,1-.224,1.069.786.786,0,0,1-1.251-.443,14.318,14.318,0,0,1,.213-9.276A11.147,11.147,0,0,1,63.593,69.195Z" transform="translate(-50.681 -62.069)" fill="#1d1c1b"/><path d="M114.759,88.785a.793.793,0,0,1,1.214.5.809.809,0,0,1-1.082.946.838.838,0,0,1-.132-1.446Z" transform="translate(-99.86 -78.057)" fill="#1d1c1b"/><path d="M130.753,94.685a.78.78,0,0,1,.94.04,8.385,8.385,0,0,1,3.093,5.41,3.251,3.251,0,0,1-.04,1.469.773.773,0,0,1-1.425-.351,7.8,7.8,0,0,0-2.584-5.2.843.843,0,0,1,.016-1.368Z" transform="translate(-112.91 -82.874)" fill="#1d1c1b"/><path d="M177.728,95.872a.806.806,0,1,1-.024,1.375.838.838,0,0,1,.024-1.375Z" transform="translate(-151.25 -83.852)" fill="#1d1c1b"/><path d="M36.309,100.807a.784.784,0,0,1,1.069.347c.209.358-.013.746-.1,1.1a11.913,11.913,0,0,0-.516,2.94.774.774,0,0,1-1.019.632A.8.8,0,0,1,35.2,105a13.12,13.12,0,0,1,.615-3.438A1.149,1.149,0,0,1,36.309,100.807Z" transform="translate(-35.197 -87.907)" fill="#1d1c1b"/><path d="M93.545,107.838a2.5,2.5,0,0,1,1.366-.136.822.822,0,0,1,.14,1.418c-.452.211-.988.16-1.427.413a2.7,2.7,0,0,0-1.381,2.413,9.3,9.3,0,0,0,2.5,6.433,9.623,9.623,0,0,0,3.981,2.464.833.833,0,0,1,.692,1,.755.755,0,0,1-1,.556,9.281,9.281,0,0,1-5.384-3.6,10.54,10.54,0,0,1-2.343-7.406A4.2,4.2,0,0,1,93.545,107.838Z" transform="translate(-80.46 -93.569)" fill="#1d1c1b"/><path d="M184.169,110.16a.811.811,0,1,1-.1,1.476.838.838,0,0,1,.1-1.476Z" transform="translate(-156.408 -95.569)" fill="#1d1c1b"/><path d="M123.526,113.784c.527-.332,1.085.138,1.265.632a6.063,6.063,0,0,1,.542,1.7.842.842,0,0,1-1.5.523c-.261-.571-.386-1.2-.626-1.778A.82.82,0,0,1,123.526,113.784Z" transform="translate(-106.974 -98.488)" fill="#1d1c1b"/><path d="M109.7,126.839a.717.717,0,0,1,1.126.5,7.8,7.8,0,0,0,.793,3.138,5.621,5.621,0,0,0,5,2.979c.441.033,1-.158,1.33.241a.828.828,0,0,1-.415,1.346,7.232,7.232,0,0,1-7.094-3.407,7.449,7.449,0,0,1-1.111-3.766A1.145,1.145,0,0,1,109.7,126.839Z" transform="translate(-95.716 -109.137)" fill="#1d1c1b"/><path d="M132.869,138.924a.815.815,0,0,1,1.032,1.049.8.8,0,0,1-1.251.382.845.845,0,0,1,.219-1.431Z" transform="translate(-114.506 -119.051)" fill="#1d1c1b"/><path d="M164.765,156.832a.808.808,0,1,1-.026,1.368.84.84,0,0,1,.026-1.368Z" transform="translate(-140.672 -133.61)" fill="#1d1c1b"/><path d="M63.638,166.839a.809.809,0,1,1-.011,1.4.842.842,0,0,1,.011-1.4Z" transform="translate(-58.102 -141.795)" fill="#1d1c1b"/><g transform="translate(6.783 10.84)"><path d="M77.338,90.13c.327-.11.749-.215,1.025.061a.81.81,0,0,1-.268,1.377,6.256,6.256,0,0,0-3.935,3.625,8.029,8.029,0,0,0-.343,4.031,12.215,12.215,0,0,0,1.5,4.481.8.8,0,0,1-.815,1.2c-.632-.14-.762-.885-1.034-1.375-1-2.525-1.772-5.353-1.041-8.055a7.651,7.651,0,0,1,4.911-5.345Z" transform="translate(-72.135 -90.015)" fill="#1eab75"/></g><g transform="translate(10.195 26.528)"><path d="M91.023,175.6a.811.811,0,0,1,1.137.182,15.006,15.006,0,0,0,1.884,1.612.759.759,0,0,1-.536,1.353,6.2,6.2,0,0,1-2.573-1.912.851.851,0,0,1,.088-1.235Z" transform="translate(-90.711 -175.441)" fill="#e82026"/></g></g><circle cx="22" cy="22" r="22" fill="#d8f5f5"/></g><g transform="translate(23.888 329.069)"><g transform="translate(0 0)"><path d="M23.205,39.591H39.592c.538,0,.973-.3.973-.663s-.435-.663-.973-.663H23.205c-.538,0-.973.3-.973.663S22.667,39.591,23.205,39.591Z" transform="translate(-1.787 -0.88)"/><g transform="translate(14.195 9.685)"><path d="M9.923,22.752A9.149,9.149,0,1,1,11,23.445a9.306,9.306,0,0,1-1.073-.693ZM20.6,21.317a7.858,7.858,0,1,0-10.419-.046,5.47,5.47,0,0,1,4.831-3.778,3.668,3.668,0,1,1,.744,0A5.472,5.472,0,0,1,20.6,21.317Zm-9.288.8a7.86,7.86,0,0,0,8.15.035,4.155,4.155,0,0,0-8.15-.035Zm4.071-10.629a2.359,2.359,0,1,0,2.359,2.358A2.359,2.359,0,0,0,15.384,11.485Z" transform="translate(0 0)" fill="#0fa9a6" fill-rule="evenodd"/></g></g></g></g></svg>