<svg xmlns="http://www.w3.org/2000/svg" xmlns:xlink="http://www.w3.org/1999/xlink" width="1032" height="1024" viewBox="0 0 1032 1024"><defs><clipPath id="b"><rect width="1032" height="1024"/></clipPath></defs><g id="a" clip-path="url(#b)"><g transform="translate(-182 -416)"><g transform="translate(-117 -241)" opacity="0.5"><g transform="translate(0 0)"><circle cx="815" cy="815" r="815" fill="#16bac2" opacity="0.17"/><circle cx="681" cy="681" r="681" transform="translate(134 134)" fill="#16bac2" opacity="0.17"/><circle cx="569" cy="569" r="569" transform="translate(246 246)" fill="#16bac2" opacity="0.17"/><circle cx="460" cy="460" r="460" transform="translate(355 355)" fill="#16bac2" opacity="0.56"/></g><circle cx="372" cy="372" r="372" transform="translate(443 443)" fill="#fff"/></g><g transform="translate(556.362 496.499)"><path d="M18.254,83.887c-.507,0-1.029-.01-1.551-.029a77.277,77.277,0,0,1-14.32-1.772C.511,81.654-.129,80.934.021,79.429a2.751,2.751,0,0,1,2.917-2.524c.109,0,.221,0,.332.014,1.252.148,2.524.372,3.754.589s2.517.444,3.774.592a50.008,50.008,0,0,0,6.644.48,33.5,33.5,0,0,0,6.643-.628c4.485-.792,8.378-3.043,12.254-7.086,1.029-1.03.889-1.616.295-2.8A153.17,153.17,0,0,1,23.052,32.484a5.12,5.12,0,0,1-.3-1.476,3.269,3.269,0,0,1,.507-2.648,2.763,2.763,0,0,1,2.19-.76c.129,0,.265,0,.4.012,6.461.422,13.367.873,20.52,1.329,2.731.147,5.425.3,8.119.443s5.388.3,8.119.443a4.19,4.19,0,0,0,.459.027c1.059,0,1.59-.528,2.2-1.5q.777-1.463,1.553-2.911c1.945-3.638,3.955-7.4,5.829-11.262l.369-.7.011-.022a43.093,43.093,0,0,1,4.639-7.542C80.8,2.044,84.661,0,88.84,0a15.225,15.225,0,0,1,9.353,3.549,31.9,31.9,0,0,1,7.086,8.414c2.658,4.349,4.963,8.881,7.192,13.263l.006.013c.494.971,1,1.976,1.512,2.964a4.08,4.08,0,0,0,4.281,2.51c4.433-.1,8.917-.166,13.255-.23,8.653-.129,17.6-.263,26.457-.656,1.1-.05,2.207-.118,3.273-.184,2.056-.127,4.18-.258,6.323-.258a13.975,13.975,0,0,1,10.039,3.985,46.366,46.366,0,0,1,6.348,7.824c.744,1.117,1.023,1.535,1.649,1.535a6.885,6.885,0,0,0,1.6-.354c9.068-2.651,18.437-5.645,28.64-9.153l.018-.006a42.786,42.786,0,0,1,8.544-2.06c.53-.048,1.054-.072,1.558-.072a12.747,12.747,0,0,1,7.3,2.138,8.164,8.164,0,0,1,3.247,4.43c.3.893.671,1.258,1.287,1.258a3.538,3.538,0,0,0,1.076-.224c5.521-1.841,11.525-3.577,18.9-5.463,5.174-1.326,10.824-2.533,17.272-3.69a7.706,7.706,0,0,1,1.026-.153c.339-.036.688-.073,1.041-.144.148-.011.292-.016.431-.016,1.8,0,2.826.873,2.964,2.526.147,1.618-.6,2.364-2.657,2.657-6.629.971-13.028,2.482-17.862,3.691-7.493,1.913-14.653,4.133-20.668,6.053a2.3,2.3,0,0,0-1.919,2.51,98.7,98.7,0,0,1-3.691,27.163,18.815,18.815,0,0,1-2.066,5.462c-1.445,2.527-3.373,3.756-5.894,3.756a9.524,9.524,0,0,1-1.93-.213,14.126,14.126,0,0,1-6.94-3.544,45.574,45.574,0,0,1-11.662-14.763,16.156,16.156,0,0,1-1.92-8.267,7.63,7.63,0,0,1,3.248-6.053,17.661,17.661,0,0,1,6.347-2.952c3.447-.948,6.842-2.113,10.125-3.241,2.337-.8,4.751-1.631,7.147-2.369.99-.305,1.469-.6,1.6-1s-.073-.926-.714-1.807a6.248,6.248,0,0,0-5.329-2.581,10,10,0,0,0-1.167.071,23.973,23.973,0,0,0-5.61,1.329c-11.46,3.933-20.935,6.982-29.82,9.6,0,.732-.284.883-.886,1.034.624,1.169,1.247,2.214,1.85,3.225.545.913,1.058,1.774,1.546,2.68A101.465,101.465,0,0,1,200.2,74.409a10.181,10.181,0,0,1,.739,3.691,4.628,4.628,0,0,1-3.838,5.167l-.009,0a18.677,18.677,0,0,1-3.685.48c-.3,0-.6-.013-.883-.04-5.315-.393-10.663-.393-15.834-.393-2.594,0-5.276,0-7.934-.049l-.108,0c-6.714-.146-13.657-.3-20.412-1.031a25.274,25.274,0,0,1-10.186-3.045,20.6,20.6,0,0,1-7.529-7.585,56.328,56.328,0,0,1-2.954-5.018c-.817-1.429-1.063-1.861-1.851-1.861a8.95,8.95,0,0,0-1.543.235c-7.27,1.689-14.691,3.442-21.867,5.137-7.267,1.716-14.777,3.49-22.126,5.2C73.6,76.9,66.9,78.394,60.428,79.834l-.174.039a29.927,29.927,0,0,1-5.949.655,21.7,21.7,0,0,1-3.056-.213,16.274,16.274,0,0,1-9.743-4.872l-.886-.885a.468.468,0,0,1-.295-.149l-.019.019c-.72.72-1.465,1.465-2.343,2.2a25.4,25.4,0,0,1-9.158,5.6A31.907,31.907,0,0,1,18.254,83.887ZM182.463,50.141a6.89,6.89,0,0,0-1.6.354c-5.139,1.395-10.4,2.813-15.49,4.184l-.008,0c-5.134,1.383-10.442,2.814-15.651,4.228-5.747,1.473-11.707,2.963-17.716,4.428,1.369,2.434,2.52,4.447,3.691,6.348a14.453,14.453,0,0,0,10.629,7.087,78.562,78.562,0,0,0,11.81,1.032c2.381.06,4.792.128,7.124.193h.022c7.492.21,15.239.427,22.826.427,1.6,0,3.191-.01,4.721-.029,1.64,0,2.479-.078,2.807-.519s.165-1.188-.3-2.73c-.148-.147-.148-.147-.148-.295a123,123,0,0,0-11.072-23.177C183.368,50.559,183.09,50.141,182.463,50.141Zm49.272-2.731a2.605,2.605,0,0,0-.55.072,2.1,2.1,0,0,1-.423.059c-2.289.723-4.622,1.535-6.877,2.32-3.291,1.145-6.692,2.33-10.1,3.291-2.645.831-4.086,1.788-4.672,3.1s-.331,3.047.834,5.607a39.259,39.259,0,0,0,11.219,14.32,9.169,9.169,0,0,0,2.5,1.621,4.671,4.671,0,0,0,1.806.445,2.847,2.847,0,0,0,2.481-1.771,25.344,25.344,0,0,0,1.034-3.1c.2-.9.4-1.82.6-2.708a117.752,117.752,0,0,0,2.2-11.612,59.414,59.414,0,0,0,.591-11.515A1.732,1.732,0,0,0,231.735,47.41ZM68.507,35.685a2.258,2.258,0,0,0-2.054,1.229,251.539,251.539,0,0,1-21.7,32.33,1.53,1.53,0,0,0,.147,2.362,10.788,10.788,0,0,0,6.938,3.69,19.031,19.031,0,0,0,2.431.153,34.906,34.906,0,0,0,7.606-1.038l51.375-11.958.091-.023c3.453-.864,7.024-1.757,10.685-2.634-.074-.223-.149-.411-.222-.593s-.147-.368-.22-.588c-2.094-4.369-4.391-8.693-6.613-12.875l0-.008c-1.378-2.594-2.8-5.275-4.16-7.933-.426-.993-1.107-1.181-2.215-1.181-5.914,0-11.586-.138-17.592-.285l-.418-.01c-7.7-.145-15.65-.3-23.473-.59A4.227,4.227,0,0,0,68.507,35.685ZM29.1,33.517c0,2.46,1.92,9.03,4.89,16.737,2.42,6.278,5.589,13.307,7.215,14.856a295.34,295.34,0,0,0,19.93-29.674C50.331,34.707,39.818,34.112,29.1,33.517Zm89.462,3.1h0a1.822,1.822,0,0,0,.125,1.447,3.313,3.313,0,0,1,.17.473c1.621,3.02,3.232,6.092,4.79,9.062l.008.016c1.561,2.976,3.174,6.053,4.8,9.079.686,1.178.917,1.574,1.606,1.574a8.2,8.2,0,0,0,1.486-.244l.008,0c16.826-4.166,31.94-8.126,46.208-12.105a13.789,13.789,0,0,0,1.919-.59,46.473,46.473,0,0,0-5.757-7.086,8.189,8.189,0,0,0-5.315-2.51,32.947,32.947,0,0,0-3.838-.149c-11.037.539-22.53.868-36.168,1.034ZM89.04,5.985a8.875,8.875,0,0,0-5.315,1.993,15.736,15.736,0,0,0-4.577,5.315c-2.006,3.344-3.79,6.924-5.516,10.387-.938,1.882-1.908,3.828-2.9,5.7-.294.44-.44.74,0,1.181,14.066.654,28.059.737,38.678.737-1.375-2.38-2.589-4.8-3.763-7.137a67.709,67.709,0,0,0-7.013-11.907,19.671,19.671,0,0,0-4.281-4.281A8.875,8.875,0,0,0,89.04,5.985Z" transform="translate(0.072)" fill="#ee7202"/><path d="M34.9,108.043a37.941,37.941,0,0,1-10.378-1.309C13.848,103.562,6.6,96.509,2.965,85.772A50.037,50.037,0,0,1,3.7,49.9c5.024-12.774,14.809-20.175,29.083-22a40.683,40.683,0,0,1,4.727-.285,34.1,34.1,0,0,1,10.036,1.466A22.981,22.981,0,0,1,59.8,37.941a4.2,4.2,0,0,1,.349.411,6.071,6.071,0,0,0,.537.621,2.055,2.055,0,0,0,.332-1.66c-.018-.182-.037-.369-.037-.553V1.034C60.983.3,61.282,0,62.017,0H72.351a.932.932,0,0,1,1.034,1.034V104.373a1.659,1.659,0,0,1-.27,1.312,1.288,1.288,0,0,1-1.007.345,3.988,3.988,0,0,1-.495-.034H63.05c-2.067,0-2.067,0-2.067-2.067V95.662a22.222,22.222,0,0,1-9.522,9.116,34.083,34.083,0,0,1-12.622,3.136C37.421,108,36.132,108.043,34.9,108.043Zm2.737-71.078a21.682,21.682,0,0,0-3.224.237C26.557,38.344,20.8,42.715,17.285,50.193c-3.027,6.45-4.089,13.838-3.247,22.587A36.169,36.169,0,0,0,18.024,86.8c4.231,7.737,10.547,11.66,18.772,11.66a30.135,30.135,0,0,0,5-.44c8.379-1.4,14.141-6.562,17.125-15.354a43.839,43.839,0,0,0,2.066-15.8c0-.4.009-.8.018-1.221a21.008,21.008,0,0,0-.165-3.947,31.641,31.641,0,0,0-2.952-12.253A22.324,22.324,0,0,0,37.635,36.965Z" transform="translate(159.371 104.526)" fill="#ee7202"/><path d="M11.106,106.95c-.147,0-.308,0-.486,0-.218,0-.46-.005-.729-.005H1.771c-1.771,0-1.771,0-1.771-1.919V4.193C0,1.978,0,1.978,2.215,1.978h8.119c2.214,0,2.214,0,2.214,2.215v6.348a5.97,5.97,0,0,0,.149,1.624h.442a20.532,20.532,0,0,1,7.1-7.732A26.846,26.846,0,0,1,30.116.8a48.182,48.182,0,0,1,8.5-.8A34.956,34.956,0,0,1,49.6,1.683a31.178,31.178,0,0,1,13.01,7.659A33.508,33.508,0,0,1,70.418,22.2a50.819,50.819,0,0,1-.886,37.055A33.667,33.667,0,0,1,59.2,73.265a35.995,35.995,0,0,1-16.092,6.808,36.944,36.944,0,0,1-7.036.678,37.37,37.37,0,0,1-9.055-1.121,22.809,22.809,0,0,1-13.286-9.153,3.235,3.235,0,0,0-.59-.737.078.078,0,0,0-.016-.056c-.019-.019-.054-.019-.113-.019a1.33,1.33,0,0,1-.462-.074v34.841q0,.209,0,.395v.008c0,1.08,0,1.623-.253,1.88C12.1,106.915,11.754,106.95,11.106,106.95ZM36.645,9.628h0a26.128,26.128,0,0,0-8.154,1.354c-6.974,2.325-11.609,7.347-14.171,15.354a39.517,39.517,0,0,0-1.772,14.024c0,.635,0,1.243-.009,1.831a36.808,36.808,0,0,0,.452,7.617A38.23,38.23,0,0,0,14.32,55.42C17.625,65.108,25.8,71.127,35.651,71.127a25.608,25.608,0,0,0,6.275-.8c7.439-1.929,12.654-7,15.5-15.058a47.009,47.009,0,0,0,1.181-25.244,43.248,43.248,0,0,0-2.51-7.382C52.319,14.374,45.229,9.63,36.646,9.63Z" transform="translate(0.094 131.925)" fill="#ee7202"/><path d="M168.841,228.716h11.81c.886,0,1.033.59,1.329,1.181.443,1.329.738,2.657,1.181,3.838,2.51,5.905,7.086,9.005,13.434,9.743,3.4.3,6.939.3,10.186-1.033,3.838-1.476,6.791-3.838,7.381-8.12a10.446,10.446,0,0,0-4.724-10.924,40.331,40.331,0,0,0-10.629-4.724,96.591,96.591,0,0,1-11.072-3.543,39.762,39.762,0,0,1-8.858-4.872c-5.905-4.576-8.119-10.777-7.234-18.158,1.181-9.005,6.2-14.763,14.615-17.568a35.073,35.073,0,0,1,23.62.148c9.6,3.4,14.467,10.777,16.091,20.668.148.886-.3,1.181-1.033,1.181H214.31c-1.033,0-1.329-.443-1.476-1.329a9.385,9.385,0,0,0-.886-2.657c-2.953-7.824-9.448-10.924-16.977-10.186-.886.148-1.919.3-2.8.443-4.281,1.181-6.938,3.838-7.677,8.415s.591,8.267,4.429,11.072a36.409,36.409,0,0,0,10.186,4.281,101.342,101.342,0,0,1,11.367,3.543,43.315,43.315,0,0,1,8.858,4.872c6.053,4.724,8.267,11.072,7.677,18.6-.738,8.415-5.315,13.877-12.991,16.829a40.318,40.318,0,0,1-28.2.738c-9.6-3.1-14.91-10.334-16.829-20.077A4,4,0,0,1,168.841,228.716Z" transform="translate(-81.795 -40.634)" fill="#ee7202"/><path d="M2.456,23.539H.98c-.613,0-.886-.318-.886-1.032V2.577a4.511,4.511,0,0,0-.047-.54C-.031,1.414-.112.77.684.657c.181-.052.367-.115.564-.183A4.864,4.864,0,0,1,2.759.125,1.463,1.463,0,0,1,3.933.657c.256.321.47.464.692.464A1.333,1.333,0,0,0,5.215.905c.061-.033.125-.067.193-.1A11.459,11.459,0,0,1,9.356,0a5.716,5.716,0,0,1,4.27,1.693,9.174,9.174,0,0,1,2.117,6.641,9.39,9.39,0,0,1-2.421,6.46A8.279,8.279,0,0,1,7.2,17.179a12.448,12.448,0,0,1-1.794-.135A5.7,5.7,0,0,1,4.08,16.9v5.02a1.533,1.533,0,0,1-.238,1.235A1.765,1.765,0,0,1,2.456,23.539ZM7.923,3.24a5.417,5.417,0,0,0-1.48.221c-2.036.582-2.362.84-2.362,3.1v5.018c0,2,.552,2.779,1.969,2.779a6.175,6.175,0,0,0,1.13-.122,4.209,4.209,0,0,0,3.4-2.214,7.837,7.837,0,0,0,.295-6.791A2.9,2.9,0,0,0,7.923,3.24Z" transform="translate(0 260.944)" fill="#ee7303"/><path d="M7.932,17.507a7.487,7.487,0,0,1-5.775-2.39A9.657,9.657,0,0,1,0,8.553,8.9,8.9,0,0,1,2.544,2.382,8.141,8.141,0,0,1,8.324,0a9.161,9.161,0,0,1,4.667,1.32A7.167,7.167,0,0,1,16.239,5.6a12.489,12.489,0,0,1,.147,6.2,6.952,6.952,0,0,1-5.462,5.315A12.389,12.389,0,0,1,7.932,17.507Zm.335-14.12C6.15,3.386,5,4.181,4.428,6.044A8.621,8.621,0,0,0,4.577,11.8a3.669,3.669,0,0,0,3.582,2.526c.131,0,.268-.005.4-.016a3.5,3.5,0,0,0,3.542-2.952A6.434,6.434,0,0,0,12.436,9.7c.032-.279.065-.568.113-.854-.05-.3-.084-.6-.116-.891a8.47,8.47,0,0,0-.327-1.766A3.67,3.67,0,0,0,8.267,3.386Z" transform="translate(119.081 260.724)" fill="#ee7303"/><path d="M8.467,17.492a9.651,9.651,0,0,1-3.891-.852C1.679,15.506.182,13.092,0,9.26A9.647,9.647,0,0,1,2.437,2.5,7.968,7.968,0,0,1,8.322,0a9.956,9.956,0,0,1,3.931.844c2.878,1.363,4.575,4.475,4.43,8.119a8.978,8.978,0,0,1-2.475,6.167A8,8,0,0,1,8.467,17.492ZM7.9,3.341A3.639,3.639,0,0,0,4.133,6.6a9.511,9.511,0,0,0,.295,5.018,3.794,3.794,0,0,0,3.729,2.673c.132,0,.268-.005.4-.016a3.649,3.649,0,0,0,3.543-3.1A6.95,6.95,0,0,0,12.4,8.816a4.719,4.719,0,0,0-.295-2.066c-.444-2.222-1.771-3.4-3.838-3.4C8.144,3.346,8.022,3.341,7.9,3.341Z" transform="translate(203.524 260.756)" fill="#ee7303"/><path d="M8.213,17.323A10.7,10.7,0,0,1,4.4,16.595,5.728,5.728,0,0,1,.854,13.2a11.313,11.313,0,0,1,.295-9.3A8.091,8.091,0,0,1,8.212,0a6.9,6.9,0,0,1,4.306,1.388A7.726,7.726,0,0,1,14.88,8.77c-.147.59-.745.59-1.181.59H5.135a.92.92,0,0,0-.751.284,1.051,1.051,0,0,0-.134.9,3.9,3.9,0,0,0,3.247,3.4,7.029,7.029,0,0,0,1.253.113,6.853,6.853,0,0,0,3.324-.852,1.56,1.56,0,0,1,.737-.235c.457,0,.691.362.938.746a3.14,3.14,0,0,0,.391.523,1.061,1.061,0,0,1,.224.821c-.09.4-.506.677-.961.95A11.44,11.44,0,0,1,8.213,17.323ZM8.089,2.866c-2.067,0-3.1,1.034-3.691,3.69,1.023.069,2.185.148,3.322.148a16.824,16.824,0,0,0,3.322-.3C10.738,3.826,9.938,2.866,8.089,2.866Z" transform="translate(23.303 260.95)" fill="#ee7203"/><path d="M207.708,268.562c0-2.067.148-4.281,0-6.348,0-1.329.443-1.919,1.624-1.919.886,0,2.067-.886,2.51.738.148.59.738.148,1.033,0A12.436,12.436,0,0,1,218.042,260c2.51.148,4.134,1.476,4.281,3.838.148,3.986.148,7.972.148,11.958,0,.738-.443,1.034-1.181,1.034h-1.476c-1.181.148-1.476-.443-1.476-1.476v-8.267c0-1.329.3-2.8-1.329-3.543-1.771-.738-3.248,0-4.872.738-.59.3-.443,1.033-.443,1.624v9.3c0,.59.3,1.329-.443,1.476a6.085,6.085,0,0,1-3.248-.148c-.443-.3-.3-.886-.3-1.476Z" transform="translate(-63.235 1.01)" fill="#ee7304"/><path d="M153.944,261.737a8.708,8.708,0,0,0-.59,1.181c-.443,1.181-1.181,1.476-2.362.886a6.73,6.73,0,0,0-3.4-.738,5.247,5.247,0,0,0-1.476.3,1.255,1.255,0,0,0,0,2.362,15.375,15.375,0,0,0,2.362.886,12.2,12.2,0,0,1,3.248,1.181,4.673,4.673,0,0,1,2.8,4.724,4.847,4.847,0,0,1-3.691,4.429,12.236,12.236,0,0,1-10.334-1.624c-.148-.591.3-1.033.59-1.476.443-1.181,1.181-1.329,2.362-.59a7.039,7.039,0,0,0,4.576,1.033c1.033-.148,2.067-.3,2.362-1.476.3-1.329-.886-1.771-1.772-2.067a17.847,17.847,0,0,0-2.657-.738c-.443-.148-1.033-.3-1.476-.443-2.51-1.033-3.691-2.51-3.543-4.724a4.843,4.843,0,0,1,3.986-4.281A10.717,10.717,0,0,1,153.944,261.737Z" transform="translate(-95.242 1.045)" fill="#ee7303"/><path d="M229.438,257.76c.443,1.181-.443,2.657.443,3.543.886,1.033,2.362.3,3.691.443.59,0,1.181.148,1.033,1.033s.3,2.067-1.181,2.067H231.21c-1.033,0-1.476.3-1.476,1.329v6.5c.148,1.772.738,2.214,2.362,2.214,2.214,0,2.214,0,2.953,2.214-.738.886-1.919.886-2.953,1.181-3.691.591-6.2-1.181-6.348-4.872a56.749,56.749,0,0,1,0-7.086c0-1.033-.3-1.624-1.476-1.476-1.329.148-1.772-.443-1.772-1.624s.443-1.476,1.476-1.476c.886.148,1.624,0,1.624-1.329.148-2.51.148-2.51,2.8-2.8A1.366,1.366,0,0,1,229.438,257.76Z" transform="translate(-56.178 -0.145)" fill="#ee7303"/><path d="M166.205,262.029v.738c-.3,2.067-.3,2.067-2.51,2.067H162.22a.783.783,0,0,0-.886.886V273.1c.148,1.624.886,2.067,2.8,1.772.738-.148,1.329-.591,1.772.59.738,1.624.59,2.067-1.181,2.51a10.225,10.225,0,0,1-2.953.443c-2.8-.3-4.429-1.919-4.576-4.724-.148-2.362,0-4.724,0-7.086,0-1.181-.148-2.067-1.624-1.772-1.329.148-1.476-.443-1.476-1.624,0-1.329.443-1.624,1.624-1.476,1.033.148,1.476-.3,1.476-1.476.148-2.51.3-2.51,2.8-2.657.886,0,1.181.148,1.329,1.033,0,1.034-.443,2.214.443,2.8.738.443,1.919.148,2.953.148C165.172,261.734,165.763,261.586,166.205,262.029Z" transform="translate(-88.755 -0.133)" fill="#ee7303"/><path d="M176.4,269.29c0-8.267,6.643-10.629,12.105-8.562.59.3,1.476.443,1.181,1.624-.591,1.476-1.033,1.771-2.214,1.476a9.018,9.018,0,0,0-1.919-.443c-2.8-.443-4.724,1.624-4.872,5.019-.148,3.691,1.181,5.61,4.281,5.61a5.457,5.457,0,0,0,3.1-.886c1.329-.738,1.476.591,1.919,1.181.59.738.148,1.181-.443,1.624-2.953,1.476-5.905,1.919-9.005.59-2.362-1.033-3.4-2.952-3.838-5.314A5.45,5.45,0,0,1,176.4,269.29Z" transform="translate(-78.134 1.021)" fill="#ee7303"/><path d="M268.939,266.684v10.924c0,.591.3,1.624-.443,1.919a4.137,4.137,0,0,1-3.248,0c-.591-.148-.443-1.034-.443-1.624V255.612c0-.443-.148-1.181.443-1.181,1.033-.148,2.214-.738,3.248-.148.591.3.3,1.033.3,1.624C268.939,259.45,268.939,263.141,268.939,266.684Z" transform="translate(-36.037 -1.835)" fill="#ee7406"/><path d="M236.3,268.678c0-2.214.148-4.429,0-6.5,0-1.329.591-1.919,1.772-1.919.886,0,2.214-.738,2.657,1.034.148.59.738,0,1.033-.148a5.686,5.686,0,0,1,4.281-1.033c.738,0,1.329.3,1.033,1.181a3.668,3.668,0,0,0-.148,1.181c0,1.181-.443,1.919-1.771,1.476a3.149,3.149,0,0,0-1.181,0,3.216,3.216,0,0,0-3.248,3.4v7.529c0,1.771-.148,1.771-2.214,1.771-1.771,0-1.919,0-1.919-1.771A43.6,43.6,0,0,1,236.3,268.678Z" transform="translate(-49.606 1.042)" fill="#ee7507"/></g></g></g></svg>