<svg xmlns="http://www.w3.org/2000/svg" xmlns:xlink="http://www.w3.org/1999/xlink" width="40" height="40" viewBox="0 0 40 40"><defs><clipPath id="b"><rect width="40" height="40"/></clipPath></defs><g id="a" clip-path="url(#b)"><path d="M30.463,7.738A14.86,14.86,0,0,0,17.6,30.021l7.424,12.874a6.268,6.268,0,0,0,10.866,0L38.8,37.845l.656-1.136,3.862-6.688h0A14.858,14.858,0,0,0,30.462,7.738Zm9.063,20.088L32.1,40.71a1.879,1.879,0,0,1-3.265,0L21.4,27.826a10.469,10.469,0,1,1,18.13,0Zm-4.255-5.354v0a4.809,4.809,0,1,1-4.808-4.8,4.809,4.809,0,0,1,4.808,4.8Z" transform="translate(-10.609 -6.739)" fill="#3b3b3b"/></g></svg>