<svg xmlns="http://www.w3.org/2000/svg" xmlns:xlink="http://www.w3.org/1999/xlink" width="40" height="40" viewBox="0 0 40 40"><defs><clipPath id="b"><rect width="40" height="40"/></clipPath></defs><g id="a" clip-path="url(#b)"><g transform="translate(4.889 1)"><g transform="translate(0)"><path d="M17.98,20.512c0,7.963-1.814,10.4-2.92,11.1a3.314,3.314,0,0,0,1.858,6.061h7.388A5.51,5.51,0,0,0,35.1,37.72h7.388A3.342,3.342,0,0,0,45.8,34.4a3.265,3.265,0,0,0-1.46-2.743c-1.106-.752-2.92-3.185-2.92-11.1,0-7.432-4.512-10.4-7.83-11.634a5.42,5.42,0,0,0,.088-.841,3.981,3.981,0,1,0-7.963,0,5.42,5.42,0,0,0,.088.841C22.492,10.072,17.98,13.08,17.98,20.512ZM29.7,40.331a3.815,3.815,0,0,1-3.583-2.61h7.166A3.815,3.815,0,0,1,29.7,40.331ZM44.035,34.4a1.567,1.567,0,0,1-1.548,1.548H16.918A1.567,1.567,0,0,1,15.369,34.4a1.489,1.489,0,0,1,.531-1.15H43.593A1.769,1.769,0,0,1,44.035,34.4ZM29.7,5.825a2.19,2.19,0,0,1,2.212,2.212.974.974,0,0,1-.044.354,10.949,10.949,0,0,0-4.38,0c0-.133-.044-.221-.044-.354A2.256,2.256,0,0,1,29.7,5.825Zm-2.345,4.424H27.4a8.5,8.5,0,0,1,2.345-.31,7.479,7.479,0,0,1,2.3.354h.044c3.451.973,7.609,3.539,7.609,10.263,0,5.132.708,8.8,2.168,10.971H17.581c1.416-2.212,2.168-5.884,2.168-10.971C19.749,13.788,23.863,11.222,27.358,10.249Z" transform="translate(-13.6 -4.1)" fill="#0fa9a6" stroke="#0fa9a6" stroke-width="0.4"/><path d="M32.747,29.687h.133a.9.9,0,0,0,.885-.752c.354-2.61,3.052-4.2,3.1-4.2a.873.873,0,0,0-.885-1.5c-.133.088-3.495,2.035-3.981,5.53A.9.9,0,0,0,32.747,29.687Z" transform="translate(-22.195 -13.691)" fill="#0fa9a6" stroke="#0fa9a6" stroke-width="0.4"/></g></g></g></svg>