<svg xmlns="http://www.w3.org/2000/svg" xmlns:xlink="http://www.w3.org/1999/xlink" width="40" height="40" viewBox="0 0 40 40"><defs><clipPath id="b"><rect width="40" height="40"/></clipPath></defs><g id="a" clip-path="url(#b)"><g transform="translate(-15.129 -13.619)"><path d="M41.781,33.781a9.726,9.726,0,1,0-6.88-2.845,9.7,9.7,0,0,0,6.88,2.845ZM36.051,18.325a8.1,8.1,0,1,1,0,11.461,8.08,8.08,0,0,1,0-11.461Z" transform="translate(-6.542 0)" fill="#0fa9a6" stroke="#0fa9a6" stroke-width="0.6"/><path d="M52.706,69.4h0a17.539,17.539,0,0,0-1.865-7.86.813.813,0,1,0-1.451.733,15.909,15.909,0,0,1,1.667,6.315H19.419A15.839,15.839,0,0,1,46.439,58.2a.813.813,0,1,0,1.151-1.15A17.468,17.468,0,0,0,17.772,69.407a.813.813,0,0,0,.813.813l.059,0H51.873l.021,0a.813.813,0,0,0,.813-.813v0h0Z" transform="translate(0 -17.224)" fill="#0fa9a6" stroke="#0fa9a6" stroke-width="0.6"/><path d="M41.172,57.453a.82.82,0,0,0,.247,1.6.8.8,0,0,0,.247-.039,13.149,13.149,0,0,1,4.031-.629.819.819,0,0,0,0-1.638,14.751,14.751,0,0,0-4.525.707Z" transform="translate(-8.165 -17.134)" fill="#0fa9a6"/><path d="M4.843.1a14.221,14.221,0,0,0-4.7,3.685.6.6,0,0,0,.221.93.936.936,0,0,0,.453.114.872.872,0,0,0,.675-.3A12.667,12.667,0,0,1,5.68,1.244.608.608,0,0,0,5.958.325.917.917,0,0,0,4.843.1Z" transform="matrix(0.995, -0.105, 0.105, 0.995, 24.813, 41.939)" fill="#0fa9a6"/></g></g></svg>